G04 #@! TF.GenerationSoftware,KiCad,Pcbnew,(5.1.9)-1*
G04 #@! TF.CreationDate,2021-02-28T19:29:52+01:00*
G04 #@! TF.ProjectId,arduino as isp shield,61726475-696e-46f2-9061-732069737020,rev?*
G04 #@! TF.SameCoordinates,Original*
G04 #@! TF.FileFunction,Copper,L2,Bot*
G04 #@! TF.FilePolarity,Positive*
%FSLAX46Y46*%
G04 Gerber Fmt 4.6, Leading zero omitted, Abs format (unit mm)*
G04 Created by KiCad (PCBNEW (5.1.9)-1) date 2021-02-28 19:29:52*
%MOMM*%
%LPD*%
G01*
G04 APERTURE LIST*
G04 #@! TA.AperFunction,ComponentPad*
%ADD10O,1.700000X1.700000*%
G04 #@! TD*
G04 #@! TA.AperFunction,ComponentPad*
%ADD11R,1.700000X1.700000*%
G04 #@! TD*
G04 #@! TA.AperFunction,ComponentPad*
%ADD12C,1.700000*%
G04 #@! TD*
G04 #@! TA.AperFunction,ComponentPad*
%ADD13O,1.727200X2.032000*%
G04 #@! TD*
G04 #@! TA.AperFunction,ComponentPad*
%ADD14C,4.064000*%
G04 #@! TD*
G04 #@! TA.AperFunction,ViaPad*
%ADD15C,0.600000*%
G04 #@! TD*
G04 #@! TA.AperFunction,Conductor*
%ADD16C,0.400000*%
G04 #@! TD*
G04 #@! TA.AperFunction,Conductor*
%ADD17C,0.254000*%
G04 #@! TD*
G04 #@! TA.AperFunction,Conductor*
%ADD18C,0.100000*%
G04 #@! TD*
G04 APERTURE END LIST*
D10*
X154178000Y-83185000D03*
D11*
X154178000Y-85725000D03*
D12*
X155448000Y-103505000D03*
X155448000Y-100965000D03*
X155448000Y-98425000D03*
X152908000Y-103505000D03*
X152908000Y-100965000D03*
G04 #@! TA.AperFunction,ComponentPad*
G36*
G01*
X152058000Y-99025000D02*
X152058000Y-97825000D01*
G75*
G02*
X152308000Y-97575000I250000J0D01*
G01*
X153508000Y-97575000D01*
G75*
G02*
X153758000Y-97825000I0J-250000D01*
G01*
X153758000Y-99025000D01*
G75*
G02*
X153508000Y-99275000I-250000J0D01*
G01*
X152308000Y-99275000D01*
G75*
G02*
X152058000Y-99025000I0J250000D01*
G01*
G37*
G04 #@! TD.AperFunction*
X132588000Y-108585000D03*
X132588000Y-106045000D03*
X132588000Y-103505000D03*
X132588000Y-100965000D03*
X132588000Y-98425000D03*
X130048000Y-108585000D03*
X130048000Y-106045000D03*
X130048000Y-103505000D03*
X130048000Y-100965000D03*
G04 #@! TA.AperFunction,ComponentPad*
G36*
G01*
X129198000Y-99025000D02*
X129198000Y-97825000D01*
G75*
G02*
X129448000Y-97575000I250000J0D01*
G01*
X130648000Y-97575000D01*
G75*
G02*
X130898000Y-97825000I0J-250000D01*
G01*
X130898000Y-99025000D01*
G75*
G02*
X130648000Y-99275000I-250000J0D01*
G01*
X129448000Y-99275000D01*
G75*
G02*
X129198000Y-99025000I0J250000D01*
G01*
G37*
G04 #@! TD.AperFunction*
D13*
X127508000Y-123825000D03*
X130048000Y-123825000D03*
X132588000Y-123825000D03*
X135128000Y-123825000D03*
X137668000Y-123825000D03*
X140208000Y-123825000D03*
X142748000Y-123825000D03*
X145288000Y-123825000D03*
X150368000Y-123825000D03*
X152908000Y-123825000D03*
X155448000Y-123825000D03*
X157988000Y-123825000D03*
X160528000Y-123825000D03*
X163068000Y-123825000D03*
X118364000Y-75565000D03*
X120904000Y-75565000D03*
X123444000Y-75565000D03*
X125984000Y-75565000D03*
X128524000Y-75565000D03*
X131064000Y-75565000D03*
X133604000Y-75565000D03*
X136144000Y-75565000D03*
X138684000Y-75565000D03*
X141224000Y-75565000D03*
X145288000Y-75565000D03*
X147828000Y-75565000D03*
X150368000Y-75565000D03*
X152908000Y-75565000D03*
X155448000Y-75565000D03*
X157988000Y-75565000D03*
X160528000Y-75565000D03*
X163068000Y-75565000D03*
D14*
X113538000Y-123825000D03*
X165608000Y-118745000D03*
X114808000Y-75565000D03*
X165608000Y-90805000D03*
D15*
X128524000Y-103632000D03*
X146685000Y-108015010D03*
X138684000Y-81534000D03*
X132461000Y-82042000D03*
X140970000Y-85090000D03*
X132461000Y-85471000D03*
X145288000Y-89408000D03*
X132461000Y-89535000D03*
D16*
X128845919Y-106045000D02*
X130048000Y-106045000D01*
X126238000Y-103437081D02*
X128845919Y-106045000D01*
X126238000Y-80645000D02*
X126238000Y-103437081D01*
X128524000Y-78359000D02*
X126238000Y-80645000D01*
X128524000Y-75565000D02*
X128524000Y-78359000D01*
X154158001Y-102215001D02*
X152908000Y-100965000D01*
X131318000Y-107315000D02*
X151257000Y-107315000D01*
X154158001Y-104413999D02*
X154158001Y-102215001D01*
X151257000Y-107315000D02*
X154158001Y-104413999D01*
X130048000Y-106045000D02*
X131318000Y-107315000D01*
X128524000Y-80899000D02*
X128524000Y-103632000D01*
X131064000Y-78359000D02*
X128524000Y-80899000D01*
X131064000Y-75565000D02*
X131064000Y-78359000D01*
X146685000Y-110141505D02*
X146685000Y-108015010D01*
X145701505Y-111125000D02*
X146685000Y-110141505D01*
X132588000Y-111125000D02*
X145701505Y-111125000D01*
X130048000Y-108585000D02*
X132588000Y-111125000D01*
X151657999Y-102254999D02*
X152908000Y-103505000D01*
X131298001Y-102254999D02*
X151657999Y-102254999D01*
X130048000Y-103505000D02*
X131298001Y-102254999D01*
X130048000Y-82296000D02*
X130048000Y-98425000D01*
X133604000Y-78740000D02*
X130048000Y-82296000D01*
X133604000Y-75565000D02*
X133604000Y-78740000D01*
X157988000Y-99627081D02*
X156650081Y-100965000D01*
X155448000Y-93345000D02*
X157988000Y-95885000D01*
X157988000Y-95885000D02*
X157988000Y-99627081D01*
X149098000Y-93345000D02*
X155448000Y-93345000D01*
X146558000Y-95885000D02*
X149098000Y-93345000D01*
X131738000Y-95885000D02*
X146558000Y-95885000D01*
X130048000Y-97575000D02*
X131738000Y-95885000D01*
X156650081Y-100965000D02*
X155448000Y-100965000D01*
X130048000Y-98425000D02*
X130048000Y-97575000D01*
X132969000Y-81534000D02*
X132461000Y-82042000D01*
X138684000Y-81534000D02*
X132969000Y-81534000D01*
X140589000Y-85471000D02*
X132461000Y-85471000D01*
X140970000Y-85090000D02*
X140589000Y-85471000D01*
X132588000Y-89408000D02*
X132461000Y-89535000D01*
X145288000Y-89408000D02*
X132588000Y-89408000D01*
X152908000Y-95885000D02*
X155448000Y-98425000D01*
X132588000Y-98425000D02*
X146558000Y-98425000D01*
X149098000Y-95885000D02*
X152908000Y-95885000D01*
X146558000Y-98425000D02*
X149098000Y-95885000D01*
D17*
X112736406Y-73864887D02*
X112444536Y-74301702D01*
X112243492Y-74787065D01*
X112141000Y-75302323D01*
X112141000Y-75827677D01*
X112243492Y-76342935D01*
X112444536Y-76828298D01*
X112736406Y-77265113D01*
X113107887Y-77636594D01*
X113544702Y-77928464D01*
X114030065Y-78129508D01*
X114545323Y-78232000D01*
X115070677Y-78232000D01*
X115585935Y-78129508D01*
X116071298Y-77928464D01*
X116508113Y-77636594D01*
X116879594Y-77265113D01*
X117171464Y-76828298D01*
X117227001Y-76694219D01*
X117299203Y-76782197D01*
X117527395Y-76969469D01*
X117787737Y-77108625D01*
X118070224Y-77194316D01*
X118364000Y-77223251D01*
X118657777Y-77194316D01*
X118940264Y-77108625D01*
X119200606Y-76969469D01*
X119428797Y-76782197D01*
X119616069Y-76554006D01*
X119634000Y-76520459D01*
X119651931Y-76554006D01*
X119839203Y-76782197D01*
X120067395Y-76969469D01*
X120327737Y-77108625D01*
X120610224Y-77194316D01*
X120904000Y-77223251D01*
X121197777Y-77194316D01*
X121480264Y-77108625D01*
X121740606Y-76969469D01*
X121968797Y-76782197D01*
X122156069Y-76554006D01*
X122174000Y-76520459D01*
X122191931Y-76554006D01*
X122379203Y-76782197D01*
X122607395Y-76969469D01*
X122867737Y-77108625D01*
X123150224Y-77194316D01*
X123444000Y-77223251D01*
X123737777Y-77194316D01*
X124020264Y-77108625D01*
X124280606Y-76969469D01*
X124508797Y-76782197D01*
X124696069Y-76554006D01*
X124717424Y-76514053D01*
X124865514Y-76716729D01*
X125081965Y-76915733D01*
X125333081Y-77068686D01*
X125609211Y-77169709D01*
X125624974Y-77172358D01*
X125857000Y-77051217D01*
X125857000Y-75692000D01*
X125837000Y-75692000D01*
X125837000Y-75438000D01*
X125857000Y-75438000D01*
X125857000Y-74078783D01*
X125624974Y-73957642D01*
X125609211Y-73960291D01*
X125333081Y-74061314D01*
X125081965Y-74214267D01*
X124865514Y-74413271D01*
X124717424Y-74615947D01*
X124696069Y-74575994D01*
X124508797Y-74347803D01*
X124280605Y-74160531D01*
X124020263Y-74021375D01*
X123737776Y-73935684D01*
X123444000Y-73906749D01*
X123150223Y-73935684D01*
X122867736Y-74021375D01*
X122607394Y-74160531D01*
X122379203Y-74347803D01*
X122191931Y-74575995D01*
X122174000Y-74609541D01*
X122156069Y-74575994D01*
X121968797Y-74347803D01*
X121740605Y-74160531D01*
X121480263Y-74021375D01*
X121197776Y-73935684D01*
X120904000Y-73906749D01*
X120610223Y-73935684D01*
X120327736Y-74021375D01*
X120067394Y-74160531D01*
X119839203Y-74347803D01*
X119651931Y-74575995D01*
X119634000Y-74609541D01*
X119616069Y-74575994D01*
X119428797Y-74347803D01*
X119200605Y-74160531D01*
X118940263Y-74021375D01*
X118657776Y-73935684D01*
X118364000Y-73906749D01*
X118070223Y-73935684D01*
X117787736Y-74021375D01*
X117527394Y-74160531D01*
X117299203Y-74347803D01*
X117227001Y-74435781D01*
X117171464Y-74301702D01*
X116879594Y-73864887D01*
X116749707Y-73735000D01*
X163789909Y-73735000D01*
X164898001Y-74843093D01*
X164898000Y-85944125D01*
X164894565Y-85979000D01*
X164898000Y-86013875D01*
X164898000Y-86013876D01*
X164908273Y-86118183D01*
X164948872Y-86252019D01*
X165014800Y-86375362D01*
X165103525Y-86483474D01*
X165130617Y-86505708D01*
X167438001Y-88813093D01*
X167438001Y-88863294D01*
X167308113Y-88733406D01*
X166871298Y-88441536D01*
X166385935Y-88240492D01*
X165870677Y-88138000D01*
X165345323Y-88138000D01*
X164830065Y-88240492D01*
X164344702Y-88441536D01*
X163907887Y-88733406D01*
X163536406Y-89104887D01*
X163244536Y-89541702D01*
X163043492Y-90027065D01*
X162941000Y-90542323D01*
X162941000Y-91067677D01*
X163043492Y-91582935D01*
X163244536Y-92068298D01*
X163536406Y-92505113D01*
X163907887Y-92876594D01*
X164344702Y-93168464D01*
X164830065Y-93369508D01*
X165345323Y-93472000D01*
X165870677Y-93472000D01*
X166385935Y-93369508D01*
X166871298Y-93168464D01*
X167308113Y-92876594D01*
X167438001Y-92746706D01*
X167438000Y-116803293D01*
X167308113Y-116673406D01*
X166871298Y-116381536D01*
X166385935Y-116180492D01*
X165870677Y-116078000D01*
X165345323Y-116078000D01*
X164830065Y-116180492D01*
X164344702Y-116381536D01*
X163907887Y-116673406D01*
X163536406Y-117044887D01*
X163244536Y-117481702D01*
X163043492Y-117967065D01*
X162941000Y-118482323D01*
X162941000Y-119007677D01*
X163043492Y-119522935D01*
X163244536Y-120008298D01*
X163536406Y-120445113D01*
X163907887Y-120816594D01*
X164344702Y-121108464D01*
X164830065Y-121309508D01*
X165345323Y-121412000D01*
X165870677Y-121412000D01*
X166385935Y-121309508D01*
X166871298Y-121108464D01*
X167308113Y-120816594D01*
X167438000Y-120686707D01*
X167438000Y-120990908D01*
X165130617Y-123298292D01*
X165103526Y-123320525D01*
X165081293Y-123347616D01*
X165014801Y-123428637D01*
X164948872Y-123551981D01*
X164908274Y-123685816D01*
X164894565Y-123825000D01*
X164898001Y-123859885D01*
X164898000Y-125655000D01*
X115479707Y-125655000D01*
X115609594Y-125525113D01*
X115901464Y-125088298D01*
X116102508Y-124602935D01*
X116205000Y-124087677D01*
X116205000Y-123598982D01*
X126009400Y-123598982D01*
X126009400Y-124051019D01*
X126031084Y-124271177D01*
X126116775Y-124553664D01*
X126255931Y-124814006D01*
X126443203Y-125042197D01*
X126671395Y-125229469D01*
X126931737Y-125368625D01*
X127214224Y-125454316D01*
X127508000Y-125483251D01*
X127801777Y-125454316D01*
X128084264Y-125368625D01*
X128344606Y-125229469D01*
X128572797Y-125042197D01*
X128760069Y-124814006D01*
X128778000Y-124780459D01*
X128795931Y-124814006D01*
X128983203Y-125042197D01*
X129211395Y-125229469D01*
X129471737Y-125368625D01*
X129754224Y-125454316D01*
X130048000Y-125483251D01*
X130341777Y-125454316D01*
X130624264Y-125368625D01*
X130884606Y-125229469D01*
X131112797Y-125042197D01*
X131300069Y-124814006D01*
X131318000Y-124780459D01*
X131335931Y-124814006D01*
X131523203Y-125042197D01*
X131751395Y-125229469D01*
X132011737Y-125368625D01*
X132294224Y-125454316D01*
X132588000Y-125483251D01*
X132881777Y-125454316D01*
X133164264Y-125368625D01*
X133424606Y-125229469D01*
X133652797Y-125042197D01*
X133840069Y-124814006D01*
X133858000Y-124780459D01*
X133875931Y-124814006D01*
X134063203Y-125042197D01*
X134291395Y-125229469D01*
X134551737Y-125368625D01*
X134834224Y-125454316D01*
X135128000Y-125483251D01*
X135421777Y-125454316D01*
X135704264Y-125368625D01*
X135964606Y-125229469D01*
X136192797Y-125042197D01*
X136380069Y-124814006D01*
X136398000Y-124780459D01*
X136415931Y-124814006D01*
X136603203Y-125042197D01*
X136831395Y-125229469D01*
X137091737Y-125368625D01*
X137374224Y-125454316D01*
X137668000Y-125483251D01*
X137961777Y-125454316D01*
X138244264Y-125368625D01*
X138504606Y-125229469D01*
X138732797Y-125042197D01*
X138920069Y-124814006D01*
X138941424Y-124774053D01*
X139089514Y-124976729D01*
X139305965Y-125175733D01*
X139557081Y-125328686D01*
X139833211Y-125429709D01*
X139848974Y-125432358D01*
X140081000Y-125311217D01*
X140081000Y-123952000D01*
X140335000Y-123952000D01*
X140335000Y-125311217D01*
X140567026Y-125432358D01*
X140582789Y-125429709D01*
X140858919Y-125328686D01*
X141110035Y-125175733D01*
X141326486Y-124976729D01*
X141478000Y-124769367D01*
X141629514Y-124976729D01*
X141845965Y-125175733D01*
X142097081Y-125328686D01*
X142373211Y-125429709D01*
X142388974Y-125432358D01*
X142621000Y-125311217D01*
X142621000Y-123952000D01*
X140335000Y-123952000D01*
X140081000Y-123952000D01*
X140061000Y-123952000D01*
X140061000Y-123698000D01*
X140081000Y-123698000D01*
X140081000Y-122338783D01*
X140335000Y-122338783D01*
X140335000Y-123698000D01*
X142621000Y-123698000D01*
X142621000Y-122338783D01*
X142875000Y-122338783D01*
X142875000Y-123698000D01*
X142895000Y-123698000D01*
X142895000Y-123952000D01*
X142875000Y-123952000D01*
X142875000Y-125311217D01*
X143107026Y-125432358D01*
X143122789Y-125429709D01*
X143398919Y-125328686D01*
X143650035Y-125175733D01*
X143866486Y-124976729D01*
X144014576Y-124774053D01*
X144035931Y-124814006D01*
X144223203Y-125042197D01*
X144451395Y-125229469D01*
X144711737Y-125368625D01*
X144994224Y-125454316D01*
X145288000Y-125483251D01*
X145581777Y-125454316D01*
X145864264Y-125368625D01*
X146124606Y-125229469D01*
X146352797Y-125042197D01*
X146540069Y-124814006D01*
X146679225Y-124553663D01*
X146764916Y-124271176D01*
X146786600Y-124051018D01*
X146786600Y-123598982D01*
X148869400Y-123598982D01*
X148869400Y-124051019D01*
X148891084Y-124271177D01*
X148976775Y-124553664D01*
X149115931Y-124814006D01*
X149303203Y-125042197D01*
X149531395Y-125229469D01*
X149791737Y-125368625D01*
X150074224Y-125454316D01*
X150368000Y-125483251D01*
X150661777Y-125454316D01*
X150944264Y-125368625D01*
X151204606Y-125229469D01*
X151432797Y-125042197D01*
X151620069Y-124814006D01*
X151638000Y-124780459D01*
X151655931Y-124814006D01*
X151843203Y-125042197D01*
X152071395Y-125229469D01*
X152331737Y-125368625D01*
X152614224Y-125454316D01*
X152908000Y-125483251D01*
X153201777Y-125454316D01*
X153484264Y-125368625D01*
X153744606Y-125229469D01*
X153972797Y-125042197D01*
X154160069Y-124814006D01*
X154178000Y-124780459D01*
X154195931Y-124814006D01*
X154383203Y-125042197D01*
X154611395Y-125229469D01*
X154871737Y-125368625D01*
X155154224Y-125454316D01*
X155448000Y-125483251D01*
X155741777Y-125454316D01*
X156024264Y-125368625D01*
X156284606Y-125229469D01*
X156512797Y-125042197D01*
X156700069Y-124814006D01*
X156718000Y-124780459D01*
X156735931Y-124814006D01*
X156923203Y-125042197D01*
X157151395Y-125229469D01*
X157411737Y-125368625D01*
X157694224Y-125454316D01*
X157988000Y-125483251D01*
X158281777Y-125454316D01*
X158564264Y-125368625D01*
X158824606Y-125229469D01*
X159052797Y-125042197D01*
X159240069Y-124814006D01*
X159258000Y-124780459D01*
X159275931Y-124814006D01*
X159463203Y-125042197D01*
X159691395Y-125229469D01*
X159951737Y-125368625D01*
X160234224Y-125454316D01*
X160528000Y-125483251D01*
X160821777Y-125454316D01*
X161104264Y-125368625D01*
X161364606Y-125229469D01*
X161592797Y-125042197D01*
X161780069Y-124814006D01*
X161798000Y-124780459D01*
X161815931Y-124814006D01*
X162003203Y-125042197D01*
X162231395Y-125229469D01*
X162491737Y-125368625D01*
X162774224Y-125454316D01*
X163068000Y-125483251D01*
X163361777Y-125454316D01*
X163644264Y-125368625D01*
X163904606Y-125229469D01*
X164132797Y-125042197D01*
X164320069Y-124814006D01*
X164459225Y-124553663D01*
X164544916Y-124271176D01*
X164566600Y-124051018D01*
X164566600Y-123598981D01*
X164544916Y-123378823D01*
X164459225Y-123096336D01*
X164320069Y-122835994D01*
X164132797Y-122607803D01*
X163904605Y-122420531D01*
X163644263Y-122281375D01*
X163361776Y-122195684D01*
X163068000Y-122166749D01*
X162774223Y-122195684D01*
X162491736Y-122281375D01*
X162231394Y-122420531D01*
X162003203Y-122607803D01*
X161815931Y-122835995D01*
X161798000Y-122869541D01*
X161780069Y-122835994D01*
X161592797Y-122607803D01*
X161364605Y-122420531D01*
X161104263Y-122281375D01*
X160821776Y-122195684D01*
X160528000Y-122166749D01*
X160234223Y-122195684D01*
X159951736Y-122281375D01*
X159691394Y-122420531D01*
X159463203Y-122607803D01*
X159275931Y-122835995D01*
X159258000Y-122869541D01*
X159240069Y-122835994D01*
X159052797Y-122607803D01*
X158824605Y-122420531D01*
X158564263Y-122281375D01*
X158281776Y-122195684D01*
X157988000Y-122166749D01*
X157694223Y-122195684D01*
X157411736Y-122281375D01*
X157151394Y-122420531D01*
X156923203Y-122607803D01*
X156735931Y-122835995D01*
X156718000Y-122869541D01*
X156700069Y-122835994D01*
X156512797Y-122607803D01*
X156284605Y-122420531D01*
X156024263Y-122281375D01*
X155741776Y-122195684D01*
X155448000Y-122166749D01*
X155154223Y-122195684D01*
X154871736Y-122281375D01*
X154611394Y-122420531D01*
X154383203Y-122607803D01*
X154195931Y-122835995D01*
X154178000Y-122869541D01*
X154160069Y-122835994D01*
X153972797Y-122607803D01*
X153744605Y-122420531D01*
X153484263Y-122281375D01*
X153201776Y-122195684D01*
X152908000Y-122166749D01*
X152614223Y-122195684D01*
X152331736Y-122281375D01*
X152071394Y-122420531D01*
X151843203Y-122607803D01*
X151655931Y-122835995D01*
X151638000Y-122869541D01*
X151620069Y-122835994D01*
X151432797Y-122607803D01*
X151204605Y-122420531D01*
X150944263Y-122281375D01*
X150661776Y-122195684D01*
X150368000Y-122166749D01*
X150074223Y-122195684D01*
X149791736Y-122281375D01*
X149531394Y-122420531D01*
X149303203Y-122607803D01*
X149115931Y-122835995D01*
X148976775Y-123096337D01*
X148891084Y-123378824D01*
X148869400Y-123598982D01*
X146786600Y-123598982D01*
X146786600Y-123598981D01*
X146764916Y-123378823D01*
X146679225Y-123096336D01*
X146540069Y-122835994D01*
X146352797Y-122607803D01*
X146124605Y-122420531D01*
X145864263Y-122281375D01*
X145581776Y-122195684D01*
X145288000Y-122166749D01*
X144994223Y-122195684D01*
X144711736Y-122281375D01*
X144451394Y-122420531D01*
X144223203Y-122607803D01*
X144035931Y-122835995D01*
X144014576Y-122875947D01*
X143866486Y-122673271D01*
X143650035Y-122474267D01*
X143398919Y-122321314D01*
X143122789Y-122220291D01*
X143107026Y-122217642D01*
X142875000Y-122338783D01*
X142621000Y-122338783D01*
X142388974Y-122217642D01*
X142373211Y-122220291D01*
X142097081Y-122321314D01*
X141845965Y-122474267D01*
X141629514Y-122673271D01*
X141478000Y-122880633D01*
X141326486Y-122673271D01*
X141110035Y-122474267D01*
X140858919Y-122321314D01*
X140582789Y-122220291D01*
X140567026Y-122217642D01*
X140335000Y-122338783D01*
X140081000Y-122338783D01*
X139848974Y-122217642D01*
X139833211Y-122220291D01*
X139557081Y-122321314D01*
X139305965Y-122474267D01*
X139089514Y-122673271D01*
X138941424Y-122875947D01*
X138920069Y-122835994D01*
X138732797Y-122607803D01*
X138504605Y-122420531D01*
X138244263Y-122281375D01*
X137961776Y-122195684D01*
X137668000Y-122166749D01*
X137374223Y-122195684D01*
X137091736Y-122281375D01*
X136831394Y-122420531D01*
X136603203Y-122607803D01*
X136415931Y-122835995D01*
X136398000Y-122869541D01*
X136380069Y-122835994D01*
X136192797Y-122607803D01*
X135964605Y-122420531D01*
X135704263Y-122281375D01*
X135421776Y-122195684D01*
X135128000Y-122166749D01*
X134834223Y-122195684D01*
X134551736Y-122281375D01*
X134291394Y-122420531D01*
X134063203Y-122607803D01*
X133875931Y-122835995D01*
X133858000Y-122869541D01*
X133840069Y-122835994D01*
X133652797Y-122607803D01*
X133424605Y-122420531D01*
X133164263Y-122281375D01*
X132881776Y-122195684D01*
X132588000Y-122166749D01*
X132294223Y-122195684D01*
X132011736Y-122281375D01*
X131751394Y-122420531D01*
X131523203Y-122607803D01*
X131335931Y-122835995D01*
X131318000Y-122869541D01*
X131300069Y-122835994D01*
X131112797Y-122607803D01*
X130884605Y-122420531D01*
X130624263Y-122281375D01*
X130341776Y-122195684D01*
X130048000Y-122166749D01*
X129754223Y-122195684D01*
X129471736Y-122281375D01*
X129211394Y-122420531D01*
X128983203Y-122607803D01*
X128795931Y-122835995D01*
X128778000Y-122869541D01*
X128760069Y-122835994D01*
X128572797Y-122607803D01*
X128344605Y-122420531D01*
X128084263Y-122281375D01*
X127801776Y-122195684D01*
X127508000Y-122166749D01*
X127214223Y-122195684D01*
X126931736Y-122281375D01*
X126671394Y-122420531D01*
X126443203Y-122607803D01*
X126255931Y-122835995D01*
X126116775Y-123096337D01*
X126031084Y-123378824D01*
X126009400Y-123598982D01*
X116205000Y-123598982D01*
X116205000Y-123562323D01*
X116102508Y-123047065D01*
X115901464Y-122561702D01*
X115609594Y-122124887D01*
X115238113Y-121753406D01*
X114801298Y-121461536D01*
X114315935Y-121260492D01*
X113800677Y-121158000D01*
X113275323Y-121158000D01*
X112760065Y-121260492D01*
X112274702Y-121461536D01*
X111837887Y-121753406D01*
X111708000Y-121883293D01*
X111708000Y-80645000D01*
X125398960Y-80645000D01*
X125403000Y-80686018D01*
X125403001Y-103396052D01*
X125398960Y-103437081D01*
X125415082Y-103600769D01*
X125462828Y-103758167D01*
X125540364Y-103903226D01*
X125563907Y-103931913D01*
X125644710Y-104030372D01*
X125676574Y-104056522D01*
X128226478Y-106606427D01*
X128252628Y-106638291D01*
X128379773Y-106742636D01*
X128524832Y-106820172D01*
X128682230Y-106867918D01*
X128804900Y-106880000D01*
X128804910Y-106880000D01*
X128820993Y-106881584D01*
X128894525Y-106991632D01*
X129101368Y-107198475D01*
X129275760Y-107315000D01*
X129101368Y-107431525D01*
X128894525Y-107638368D01*
X128732010Y-107881589D01*
X128620068Y-108151842D01*
X128563000Y-108438740D01*
X128563000Y-108731260D01*
X128620068Y-109018158D01*
X128732010Y-109288411D01*
X128894525Y-109531632D01*
X129101368Y-109738475D01*
X129344589Y-109900990D01*
X129614842Y-110012932D01*
X129901740Y-110070000D01*
X130194260Y-110070000D01*
X130325940Y-110043807D01*
X131968559Y-111686427D01*
X131994709Y-111718291D01*
X132121854Y-111822636D01*
X132266913Y-111900172D01*
X132424311Y-111947918D01*
X132546981Y-111960000D01*
X132546991Y-111960000D01*
X132587999Y-111964039D01*
X132629007Y-111960000D01*
X145660487Y-111960000D01*
X145701505Y-111964040D01*
X145742523Y-111960000D01*
X145742524Y-111960000D01*
X145865194Y-111947918D01*
X146022592Y-111900172D01*
X146167651Y-111822636D01*
X146294796Y-111718291D01*
X146320951Y-111686421D01*
X147246428Y-110760945D01*
X147278291Y-110734796D01*
X147382636Y-110607651D01*
X147460172Y-110462592D01*
X147507918Y-110305194D01*
X147520000Y-110182524D01*
X147520000Y-110182523D01*
X147524040Y-110141505D01*
X147520000Y-110100487D01*
X147520000Y-108442414D01*
X147584068Y-108287739D01*
X147611466Y-108150000D01*
X151215982Y-108150000D01*
X151257000Y-108154040D01*
X151298018Y-108150000D01*
X151298019Y-108150000D01*
X151420689Y-108137918D01*
X151578087Y-108090172D01*
X151723146Y-108012636D01*
X151850291Y-107908291D01*
X151876446Y-107876421D01*
X154719434Y-105033435D01*
X154751292Y-105007290D01*
X154855637Y-104880145D01*
X154860928Y-104870247D01*
X154940883Y-104908371D01*
X155224411Y-104980339D01*
X155516531Y-104995611D01*
X155806019Y-104953599D01*
X156081747Y-104855919D01*
X156219157Y-104782472D01*
X156296792Y-104533397D01*
X155448000Y-103684605D01*
X155433858Y-103698748D01*
X155254253Y-103519143D01*
X155268395Y-103505000D01*
X155627605Y-103505000D01*
X156476397Y-104353792D01*
X156725472Y-104276157D01*
X156851371Y-104012117D01*
X156923339Y-103728589D01*
X156938611Y-103436469D01*
X156896599Y-103146981D01*
X156798919Y-102871253D01*
X156725472Y-102733843D01*
X156476397Y-102656208D01*
X155627605Y-103505000D01*
X155268395Y-103505000D01*
X155254253Y-103490858D01*
X155433858Y-103311253D01*
X155448000Y-103325395D01*
X156296792Y-102476603D01*
X156221271Y-102234311D01*
X156394632Y-102118475D01*
X156601475Y-101911632D01*
X156675006Y-101801585D01*
X156691099Y-101800000D01*
X156691100Y-101800000D01*
X156813770Y-101787918D01*
X156971168Y-101740172D01*
X157116227Y-101662636D01*
X157243372Y-101558291D01*
X157269527Y-101526421D01*
X158549426Y-100246523D01*
X158581291Y-100220372D01*
X158685636Y-100093227D01*
X158763172Y-99948168D01*
X158810918Y-99790770D01*
X158815821Y-99740990D01*
X158827040Y-99627082D01*
X158823000Y-99586063D01*
X158823000Y-95926007D01*
X158827039Y-95884999D01*
X158823000Y-95843991D01*
X158823000Y-95843981D01*
X158810918Y-95721311D01*
X158763172Y-95563913D01*
X158685636Y-95418854D01*
X158581291Y-95291709D01*
X158549428Y-95265560D01*
X156067446Y-92783579D01*
X156041291Y-92751709D01*
X155914146Y-92647364D01*
X155769087Y-92569828D01*
X155611689Y-92522082D01*
X155489019Y-92510000D01*
X155489018Y-92510000D01*
X155448000Y-92505960D01*
X155406982Y-92510000D01*
X149139007Y-92510000D01*
X149097999Y-92505961D01*
X149056991Y-92510000D01*
X149056981Y-92510000D01*
X148934311Y-92522082D01*
X148776913Y-92569828D01*
X148631854Y-92647364D01*
X148504709Y-92751709D01*
X148478559Y-92783573D01*
X146212133Y-95050000D01*
X131779018Y-95050000D01*
X131738000Y-95045960D01*
X131696981Y-95050000D01*
X131574311Y-95062082D01*
X131416913Y-95109828D01*
X131271854Y-95187364D01*
X131144709Y-95291709D01*
X131118563Y-95323568D01*
X130883000Y-95559131D01*
X130883000Y-89442911D01*
X131526000Y-89442911D01*
X131526000Y-89627089D01*
X131561932Y-89807729D01*
X131632414Y-89977889D01*
X131734738Y-90131028D01*
X131864972Y-90261262D01*
X132018111Y-90363586D01*
X132188271Y-90434068D01*
X132368911Y-90470000D01*
X132553089Y-90470000D01*
X132733729Y-90434068D01*
X132903889Y-90363586D01*
X133057028Y-90261262D01*
X133075290Y-90243000D01*
X144860596Y-90243000D01*
X145015271Y-90307068D01*
X145195911Y-90343000D01*
X145380089Y-90343000D01*
X145560729Y-90307068D01*
X145730889Y-90236586D01*
X145884028Y-90134262D01*
X146014262Y-90004028D01*
X146116586Y-89850889D01*
X146187068Y-89680729D01*
X146223000Y-89500089D01*
X146223000Y-89315911D01*
X146187068Y-89135271D01*
X146116586Y-88965111D01*
X146014262Y-88811972D01*
X145884028Y-88681738D01*
X145730889Y-88579414D01*
X145560729Y-88508932D01*
X145380089Y-88473000D01*
X145195911Y-88473000D01*
X145015271Y-88508932D01*
X144860596Y-88573000D01*
X132629018Y-88573000D01*
X132587999Y-88568960D01*
X132546981Y-88573000D01*
X132424311Y-88585082D01*
X132375133Y-88600000D01*
X132368911Y-88600000D01*
X132188271Y-88635932D01*
X132018111Y-88706414D01*
X131864972Y-88808738D01*
X131734738Y-88938972D01*
X131632414Y-89092111D01*
X131561932Y-89262271D01*
X131526000Y-89442911D01*
X130883000Y-89442911D01*
X130883000Y-85378911D01*
X131526000Y-85378911D01*
X131526000Y-85563089D01*
X131561932Y-85743729D01*
X131632414Y-85913889D01*
X131734738Y-86067028D01*
X131864972Y-86197262D01*
X132018111Y-86299586D01*
X132188271Y-86370068D01*
X132368911Y-86406000D01*
X132553089Y-86406000D01*
X132733729Y-86370068D01*
X132888404Y-86306000D01*
X140547982Y-86306000D01*
X140589000Y-86310040D01*
X140630018Y-86306000D01*
X140630019Y-86306000D01*
X140752689Y-86293918D01*
X140910087Y-86246172D01*
X141055146Y-86168636D01*
X141182291Y-86064291D01*
X141208446Y-86032421D01*
X141258212Y-85982655D01*
X141412889Y-85918586D01*
X141566028Y-85816262D01*
X141696262Y-85686028D01*
X141798586Y-85532889D01*
X141869068Y-85362729D01*
X141905000Y-85182089D01*
X141905000Y-84997911D01*
X141880552Y-84875000D01*
X152689928Y-84875000D01*
X152689928Y-86575000D01*
X152702188Y-86699482D01*
X152738498Y-86819180D01*
X152797463Y-86929494D01*
X152876815Y-87026185D01*
X152973506Y-87105537D01*
X153083820Y-87164502D01*
X153203518Y-87200812D01*
X153328000Y-87213072D01*
X155028000Y-87213072D01*
X155152482Y-87200812D01*
X155272180Y-87164502D01*
X155382494Y-87105537D01*
X155479185Y-87026185D01*
X155558537Y-86929494D01*
X155617502Y-86819180D01*
X155653812Y-86699482D01*
X155666072Y-86575000D01*
X155666072Y-84875000D01*
X155653812Y-84750518D01*
X155617502Y-84630820D01*
X155558537Y-84520506D01*
X155479185Y-84423815D01*
X155382494Y-84344463D01*
X155272180Y-84285498D01*
X155191534Y-84261034D01*
X155275588Y-84185269D01*
X155449641Y-83951920D01*
X155574825Y-83689099D01*
X155619476Y-83541890D01*
X155498155Y-83312000D01*
X154305000Y-83312000D01*
X154305000Y-83332000D01*
X154051000Y-83332000D01*
X154051000Y-83312000D01*
X152857845Y-83312000D01*
X152736524Y-83541890D01*
X152781175Y-83689099D01*
X152906359Y-83951920D01*
X153080412Y-84185269D01*
X153164466Y-84261034D01*
X153083820Y-84285498D01*
X152973506Y-84344463D01*
X152876815Y-84423815D01*
X152797463Y-84520506D01*
X152738498Y-84630820D01*
X152702188Y-84750518D01*
X152689928Y-84875000D01*
X141880552Y-84875000D01*
X141869068Y-84817271D01*
X141798586Y-84647111D01*
X141696262Y-84493972D01*
X141566028Y-84363738D01*
X141412889Y-84261414D01*
X141242729Y-84190932D01*
X141062089Y-84155000D01*
X140877911Y-84155000D01*
X140697271Y-84190932D01*
X140527111Y-84261414D01*
X140373972Y-84363738D01*
X140243738Y-84493972D01*
X140148838Y-84636000D01*
X132888404Y-84636000D01*
X132733729Y-84571932D01*
X132553089Y-84536000D01*
X132368911Y-84536000D01*
X132188271Y-84571932D01*
X132018111Y-84642414D01*
X131864972Y-84744738D01*
X131734738Y-84874972D01*
X131632414Y-85028111D01*
X131561932Y-85198271D01*
X131526000Y-85378911D01*
X130883000Y-85378911D01*
X130883000Y-82641867D01*
X131526000Y-81998867D01*
X131526000Y-82134089D01*
X131561932Y-82314729D01*
X131632414Y-82484889D01*
X131734738Y-82638028D01*
X131864972Y-82768262D01*
X132018111Y-82870586D01*
X132188271Y-82941068D01*
X132368911Y-82977000D01*
X132553089Y-82977000D01*
X132733729Y-82941068D01*
X132903889Y-82870586D01*
X132967458Y-82828110D01*
X152736524Y-82828110D01*
X152857845Y-83058000D01*
X154051000Y-83058000D01*
X154051000Y-81864186D01*
X154305000Y-81864186D01*
X154305000Y-83058000D01*
X155498155Y-83058000D01*
X155619476Y-82828110D01*
X155574825Y-82680901D01*
X155449641Y-82418080D01*
X155275588Y-82184731D01*
X155059355Y-81989822D01*
X154809252Y-81840843D01*
X154534891Y-81743519D01*
X154305000Y-81864186D01*
X154051000Y-81864186D01*
X153821109Y-81743519D01*
X153546748Y-81840843D01*
X153296645Y-81989822D01*
X153080412Y-82184731D01*
X152906359Y-82418080D01*
X152781175Y-82680901D01*
X152736524Y-82828110D01*
X132967458Y-82828110D01*
X133057028Y-82768262D01*
X133187262Y-82638028D01*
X133289586Y-82484889D01*
X133337588Y-82369000D01*
X138256596Y-82369000D01*
X138411271Y-82433068D01*
X138591911Y-82469000D01*
X138776089Y-82469000D01*
X138956729Y-82433068D01*
X139126889Y-82362586D01*
X139280028Y-82260262D01*
X139410262Y-82130028D01*
X139512586Y-81976889D01*
X139583068Y-81806729D01*
X139619000Y-81626089D01*
X139619000Y-81441911D01*
X139583068Y-81261271D01*
X139512586Y-81091111D01*
X139410262Y-80937972D01*
X139280028Y-80807738D01*
X139126889Y-80705414D01*
X138956729Y-80634932D01*
X138776089Y-80599000D01*
X138591911Y-80599000D01*
X138411271Y-80634932D01*
X138256596Y-80699000D01*
X133010007Y-80699000D01*
X132968999Y-80694961D01*
X132927991Y-80699000D01*
X132927981Y-80699000D01*
X132814711Y-80710156D01*
X134165427Y-79359441D01*
X134197291Y-79333291D01*
X134301636Y-79206146D01*
X134379172Y-79061087D01*
X134426918Y-78903689D01*
X134439000Y-78781019D01*
X134439000Y-78781009D01*
X134443039Y-78740001D01*
X134439000Y-78698993D01*
X134439000Y-76970327D01*
X134440606Y-76969469D01*
X134668797Y-76782197D01*
X134856069Y-76554006D01*
X134874000Y-76520459D01*
X134891931Y-76554006D01*
X135079203Y-76782197D01*
X135307395Y-76969469D01*
X135567737Y-77108625D01*
X135850224Y-77194316D01*
X136144000Y-77223251D01*
X136437777Y-77194316D01*
X136720264Y-77108625D01*
X136980606Y-76969469D01*
X137208797Y-76782197D01*
X137396069Y-76554006D01*
X137414000Y-76520459D01*
X137431931Y-76554006D01*
X137619203Y-76782197D01*
X137847395Y-76969469D01*
X138107737Y-77108625D01*
X138390224Y-77194316D01*
X138684000Y-77223251D01*
X138977777Y-77194316D01*
X139260264Y-77108625D01*
X139520606Y-76969469D01*
X139748797Y-76782197D01*
X139936069Y-76554006D01*
X139954000Y-76520459D01*
X139971931Y-76554006D01*
X140159203Y-76782197D01*
X140387395Y-76969469D01*
X140647737Y-77108625D01*
X140930224Y-77194316D01*
X141224000Y-77223251D01*
X141517777Y-77194316D01*
X141800264Y-77108625D01*
X142060606Y-76969469D01*
X142288797Y-76782197D01*
X142476069Y-76554006D01*
X142615225Y-76293663D01*
X142700916Y-76011176D01*
X142722600Y-75791018D01*
X142722600Y-75338982D01*
X143789400Y-75338982D01*
X143789400Y-75791019D01*
X143811084Y-76011177D01*
X143896775Y-76293664D01*
X144035931Y-76554006D01*
X144223203Y-76782197D01*
X144451395Y-76969469D01*
X144711737Y-77108625D01*
X144994224Y-77194316D01*
X145288000Y-77223251D01*
X145581777Y-77194316D01*
X145864264Y-77108625D01*
X146124606Y-76969469D01*
X146352797Y-76782197D01*
X146540069Y-76554006D01*
X146558000Y-76520459D01*
X146575931Y-76554006D01*
X146763203Y-76782197D01*
X146991395Y-76969469D01*
X147251737Y-77108625D01*
X147534224Y-77194316D01*
X147828000Y-77223251D01*
X148121777Y-77194316D01*
X148404264Y-77108625D01*
X148664606Y-76969469D01*
X148892797Y-76782197D01*
X149080069Y-76554006D01*
X149098000Y-76520459D01*
X149115931Y-76554006D01*
X149303203Y-76782197D01*
X149531395Y-76969469D01*
X149791737Y-77108625D01*
X150074224Y-77194316D01*
X150368000Y-77223251D01*
X150661777Y-77194316D01*
X150944264Y-77108625D01*
X151204606Y-76969469D01*
X151432797Y-76782197D01*
X151620069Y-76554006D01*
X151638000Y-76520459D01*
X151655931Y-76554006D01*
X151843203Y-76782197D01*
X152071395Y-76969469D01*
X152331737Y-77108625D01*
X152614224Y-77194316D01*
X152908000Y-77223251D01*
X153201777Y-77194316D01*
X153484264Y-77108625D01*
X153744606Y-76969469D01*
X153972797Y-76782197D01*
X154160069Y-76554006D01*
X154178000Y-76520459D01*
X154195931Y-76554006D01*
X154383203Y-76782197D01*
X154611395Y-76969469D01*
X154871737Y-77108625D01*
X155154224Y-77194316D01*
X155448000Y-77223251D01*
X155741777Y-77194316D01*
X156024264Y-77108625D01*
X156284606Y-76969469D01*
X156512797Y-76782197D01*
X156700069Y-76554006D01*
X156718000Y-76520459D01*
X156735931Y-76554006D01*
X156923203Y-76782197D01*
X157151395Y-76969469D01*
X157411737Y-77108625D01*
X157694224Y-77194316D01*
X157988000Y-77223251D01*
X158281777Y-77194316D01*
X158564264Y-77108625D01*
X158824606Y-76969469D01*
X159052797Y-76782197D01*
X159240069Y-76554006D01*
X159258000Y-76520459D01*
X159275931Y-76554006D01*
X159463203Y-76782197D01*
X159691395Y-76969469D01*
X159951737Y-77108625D01*
X160234224Y-77194316D01*
X160528000Y-77223251D01*
X160821777Y-77194316D01*
X161104264Y-77108625D01*
X161364606Y-76969469D01*
X161592797Y-76782197D01*
X161780069Y-76554006D01*
X161798000Y-76520459D01*
X161815931Y-76554006D01*
X162003203Y-76782197D01*
X162231395Y-76969469D01*
X162491737Y-77108625D01*
X162774224Y-77194316D01*
X163068000Y-77223251D01*
X163361777Y-77194316D01*
X163644264Y-77108625D01*
X163904606Y-76969469D01*
X164132797Y-76782197D01*
X164320069Y-76554006D01*
X164459225Y-76293663D01*
X164544916Y-76011176D01*
X164566600Y-75791018D01*
X164566600Y-75338981D01*
X164544916Y-75118823D01*
X164459225Y-74836336D01*
X164320069Y-74575994D01*
X164132797Y-74347803D01*
X163904605Y-74160531D01*
X163644263Y-74021375D01*
X163361776Y-73935684D01*
X163068000Y-73906749D01*
X162774223Y-73935684D01*
X162491736Y-74021375D01*
X162231394Y-74160531D01*
X162003203Y-74347803D01*
X161815931Y-74575995D01*
X161798000Y-74609541D01*
X161780069Y-74575994D01*
X161592797Y-74347803D01*
X161364605Y-74160531D01*
X161104263Y-74021375D01*
X160821776Y-73935684D01*
X160528000Y-73906749D01*
X160234223Y-73935684D01*
X159951736Y-74021375D01*
X159691394Y-74160531D01*
X159463203Y-74347803D01*
X159275931Y-74575995D01*
X159258000Y-74609541D01*
X159240069Y-74575994D01*
X159052797Y-74347803D01*
X158824605Y-74160531D01*
X158564263Y-74021375D01*
X158281776Y-73935684D01*
X157988000Y-73906749D01*
X157694223Y-73935684D01*
X157411736Y-74021375D01*
X157151394Y-74160531D01*
X156923203Y-74347803D01*
X156735931Y-74575995D01*
X156718000Y-74609541D01*
X156700069Y-74575994D01*
X156512797Y-74347803D01*
X156284605Y-74160531D01*
X156024263Y-74021375D01*
X155741776Y-73935684D01*
X155448000Y-73906749D01*
X155154223Y-73935684D01*
X154871736Y-74021375D01*
X154611394Y-74160531D01*
X154383203Y-74347803D01*
X154195931Y-74575995D01*
X154178000Y-74609541D01*
X154160069Y-74575994D01*
X153972797Y-74347803D01*
X153744605Y-74160531D01*
X153484263Y-74021375D01*
X153201776Y-73935684D01*
X152908000Y-73906749D01*
X152614223Y-73935684D01*
X152331736Y-74021375D01*
X152071394Y-74160531D01*
X151843203Y-74347803D01*
X151655931Y-74575995D01*
X151638000Y-74609541D01*
X151620069Y-74575994D01*
X151432797Y-74347803D01*
X151204605Y-74160531D01*
X150944263Y-74021375D01*
X150661776Y-73935684D01*
X150368000Y-73906749D01*
X150074223Y-73935684D01*
X149791736Y-74021375D01*
X149531394Y-74160531D01*
X149303203Y-74347803D01*
X149115931Y-74575995D01*
X149098000Y-74609541D01*
X149080069Y-74575994D01*
X148892797Y-74347803D01*
X148664605Y-74160531D01*
X148404263Y-74021375D01*
X148121776Y-73935684D01*
X147828000Y-73906749D01*
X147534223Y-73935684D01*
X147251736Y-74021375D01*
X146991394Y-74160531D01*
X146763203Y-74347803D01*
X146575931Y-74575995D01*
X146558000Y-74609541D01*
X146540069Y-74575994D01*
X146352797Y-74347803D01*
X146124605Y-74160531D01*
X145864263Y-74021375D01*
X145581776Y-73935684D01*
X145288000Y-73906749D01*
X144994223Y-73935684D01*
X144711736Y-74021375D01*
X144451394Y-74160531D01*
X144223203Y-74347803D01*
X144035931Y-74575995D01*
X143896775Y-74836337D01*
X143811084Y-75118824D01*
X143789400Y-75338982D01*
X142722600Y-75338982D01*
X142722600Y-75338981D01*
X142700916Y-75118823D01*
X142615225Y-74836336D01*
X142476069Y-74575994D01*
X142288797Y-74347803D01*
X142060605Y-74160531D01*
X141800263Y-74021375D01*
X141517776Y-73935684D01*
X141224000Y-73906749D01*
X140930223Y-73935684D01*
X140647736Y-74021375D01*
X140387394Y-74160531D01*
X140159203Y-74347803D01*
X139971931Y-74575995D01*
X139954000Y-74609541D01*
X139936069Y-74575994D01*
X139748797Y-74347803D01*
X139520605Y-74160531D01*
X139260263Y-74021375D01*
X138977776Y-73935684D01*
X138684000Y-73906749D01*
X138390223Y-73935684D01*
X138107736Y-74021375D01*
X137847394Y-74160531D01*
X137619203Y-74347803D01*
X137431931Y-74575995D01*
X137414000Y-74609541D01*
X137396069Y-74575994D01*
X137208797Y-74347803D01*
X136980605Y-74160531D01*
X136720263Y-74021375D01*
X136437776Y-73935684D01*
X136144000Y-73906749D01*
X135850223Y-73935684D01*
X135567736Y-74021375D01*
X135307394Y-74160531D01*
X135079203Y-74347803D01*
X134891931Y-74575995D01*
X134874000Y-74609541D01*
X134856069Y-74575994D01*
X134668797Y-74347803D01*
X134440605Y-74160531D01*
X134180263Y-74021375D01*
X133897776Y-73935684D01*
X133604000Y-73906749D01*
X133310223Y-73935684D01*
X133027736Y-74021375D01*
X132767394Y-74160531D01*
X132539203Y-74347803D01*
X132351931Y-74575995D01*
X132334000Y-74609541D01*
X132316069Y-74575994D01*
X132128797Y-74347803D01*
X131900605Y-74160531D01*
X131640263Y-74021375D01*
X131357776Y-73935684D01*
X131064000Y-73906749D01*
X130770223Y-73935684D01*
X130487736Y-74021375D01*
X130227394Y-74160531D01*
X129999203Y-74347803D01*
X129811931Y-74575995D01*
X129794000Y-74609541D01*
X129776069Y-74575994D01*
X129588797Y-74347803D01*
X129360605Y-74160531D01*
X129100263Y-74021375D01*
X128817776Y-73935684D01*
X128524000Y-73906749D01*
X128230223Y-73935684D01*
X127947736Y-74021375D01*
X127687394Y-74160531D01*
X127459203Y-74347803D01*
X127271931Y-74575995D01*
X127250576Y-74615947D01*
X127102486Y-74413271D01*
X126886035Y-74214267D01*
X126634919Y-74061314D01*
X126358789Y-73960291D01*
X126343026Y-73957642D01*
X126111000Y-74078783D01*
X126111000Y-75438000D01*
X126131000Y-75438000D01*
X126131000Y-75692000D01*
X126111000Y-75692000D01*
X126111000Y-77051217D01*
X126343026Y-77172358D01*
X126358789Y-77169709D01*
X126634919Y-77068686D01*
X126886035Y-76915733D01*
X127102486Y-76716729D01*
X127250576Y-76514053D01*
X127271931Y-76554006D01*
X127459203Y-76782197D01*
X127687395Y-76969469D01*
X127689001Y-76970327D01*
X127689001Y-78013131D01*
X125676579Y-80025554D01*
X125644709Y-80051709D01*
X125540365Y-80178854D01*
X125540364Y-80178855D01*
X125462828Y-80323914D01*
X125415082Y-80481312D01*
X125398960Y-80645000D01*
X111708000Y-80645000D01*
X111708000Y-73735000D01*
X112866293Y-73735000D01*
X112736406Y-73864887D01*
G04 #@! TA.AperFunction,Conductor*
D18*
G36*
X112736406Y-73864887D02*
G01*
X112444536Y-74301702D01*
X112243492Y-74787065D01*
X112141000Y-75302323D01*
X112141000Y-75827677D01*
X112243492Y-76342935D01*
X112444536Y-76828298D01*
X112736406Y-77265113D01*
X113107887Y-77636594D01*
X113544702Y-77928464D01*
X114030065Y-78129508D01*
X114545323Y-78232000D01*
X115070677Y-78232000D01*
X115585935Y-78129508D01*
X116071298Y-77928464D01*
X116508113Y-77636594D01*
X116879594Y-77265113D01*
X117171464Y-76828298D01*
X117227001Y-76694219D01*
X117299203Y-76782197D01*
X117527395Y-76969469D01*
X117787737Y-77108625D01*
X118070224Y-77194316D01*
X118364000Y-77223251D01*
X118657777Y-77194316D01*
X118940264Y-77108625D01*
X119200606Y-76969469D01*
X119428797Y-76782197D01*
X119616069Y-76554006D01*
X119634000Y-76520459D01*
X119651931Y-76554006D01*
X119839203Y-76782197D01*
X120067395Y-76969469D01*
X120327737Y-77108625D01*
X120610224Y-77194316D01*
X120904000Y-77223251D01*
X121197777Y-77194316D01*
X121480264Y-77108625D01*
X121740606Y-76969469D01*
X121968797Y-76782197D01*
X122156069Y-76554006D01*
X122174000Y-76520459D01*
X122191931Y-76554006D01*
X122379203Y-76782197D01*
X122607395Y-76969469D01*
X122867737Y-77108625D01*
X123150224Y-77194316D01*
X123444000Y-77223251D01*
X123737777Y-77194316D01*
X124020264Y-77108625D01*
X124280606Y-76969469D01*
X124508797Y-76782197D01*
X124696069Y-76554006D01*
X124717424Y-76514053D01*
X124865514Y-76716729D01*
X125081965Y-76915733D01*
X125333081Y-77068686D01*
X125609211Y-77169709D01*
X125624974Y-77172358D01*
X125857000Y-77051217D01*
X125857000Y-75692000D01*
X125837000Y-75692000D01*
X125837000Y-75438000D01*
X125857000Y-75438000D01*
X125857000Y-74078783D01*
X125624974Y-73957642D01*
X125609211Y-73960291D01*
X125333081Y-74061314D01*
X125081965Y-74214267D01*
X124865514Y-74413271D01*
X124717424Y-74615947D01*
X124696069Y-74575994D01*
X124508797Y-74347803D01*
X124280605Y-74160531D01*
X124020263Y-74021375D01*
X123737776Y-73935684D01*
X123444000Y-73906749D01*
X123150223Y-73935684D01*
X122867736Y-74021375D01*
X122607394Y-74160531D01*
X122379203Y-74347803D01*
X122191931Y-74575995D01*
X122174000Y-74609541D01*
X122156069Y-74575994D01*
X121968797Y-74347803D01*
X121740605Y-74160531D01*
X121480263Y-74021375D01*
X121197776Y-73935684D01*
X120904000Y-73906749D01*
X120610223Y-73935684D01*
X120327736Y-74021375D01*
X120067394Y-74160531D01*
X119839203Y-74347803D01*
X119651931Y-74575995D01*
X119634000Y-74609541D01*
X119616069Y-74575994D01*
X119428797Y-74347803D01*
X119200605Y-74160531D01*
X118940263Y-74021375D01*
X118657776Y-73935684D01*
X118364000Y-73906749D01*
X118070223Y-73935684D01*
X117787736Y-74021375D01*
X117527394Y-74160531D01*
X117299203Y-74347803D01*
X117227001Y-74435781D01*
X117171464Y-74301702D01*
X116879594Y-73864887D01*
X116749707Y-73735000D01*
X163789909Y-73735000D01*
X164898001Y-74843093D01*
X164898000Y-85944125D01*
X164894565Y-85979000D01*
X164898000Y-86013875D01*
X164898000Y-86013876D01*
X164908273Y-86118183D01*
X164948872Y-86252019D01*
X165014800Y-86375362D01*
X165103525Y-86483474D01*
X165130617Y-86505708D01*
X167438001Y-88813093D01*
X167438001Y-88863294D01*
X167308113Y-88733406D01*
X166871298Y-88441536D01*
X166385935Y-88240492D01*
X165870677Y-88138000D01*
X165345323Y-88138000D01*
X164830065Y-88240492D01*
X164344702Y-88441536D01*
X163907887Y-88733406D01*
X163536406Y-89104887D01*
X163244536Y-89541702D01*
X163043492Y-90027065D01*
X162941000Y-90542323D01*
X162941000Y-91067677D01*
X163043492Y-91582935D01*
X163244536Y-92068298D01*
X163536406Y-92505113D01*
X163907887Y-92876594D01*
X164344702Y-93168464D01*
X164830065Y-93369508D01*
X165345323Y-93472000D01*
X165870677Y-93472000D01*
X166385935Y-93369508D01*
X166871298Y-93168464D01*
X167308113Y-92876594D01*
X167438001Y-92746706D01*
X167438000Y-116803293D01*
X167308113Y-116673406D01*
X166871298Y-116381536D01*
X166385935Y-116180492D01*
X165870677Y-116078000D01*
X165345323Y-116078000D01*
X164830065Y-116180492D01*
X164344702Y-116381536D01*
X163907887Y-116673406D01*
X163536406Y-117044887D01*
X163244536Y-117481702D01*
X163043492Y-117967065D01*
X162941000Y-118482323D01*
X162941000Y-119007677D01*
X163043492Y-119522935D01*
X163244536Y-120008298D01*
X163536406Y-120445113D01*
X163907887Y-120816594D01*
X164344702Y-121108464D01*
X164830065Y-121309508D01*
X165345323Y-121412000D01*
X165870677Y-121412000D01*
X166385935Y-121309508D01*
X166871298Y-121108464D01*
X167308113Y-120816594D01*
X167438000Y-120686707D01*
X167438000Y-120990908D01*
X165130617Y-123298292D01*
X165103526Y-123320525D01*
X165081293Y-123347616D01*
X165014801Y-123428637D01*
X164948872Y-123551981D01*
X164908274Y-123685816D01*
X164894565Y-123825000D01*
X164898001Y-123859885D01*
X164898000Y-125655000D01*
X115479707Y-125655000D01*
X115609594Y-125525113D01*
X115901464Y-125088298D01*
X116102508Y-124602935D01*
X116205000Y-124087677D01*
X116205000Y-123598982D01*
X126009400Y-123598982D01*
X126009400Y-124051019D01*
X126031084Y-124271177D01*
X126116775Y-124553664D01*
X126255931Y-124814006D01*
X126443203Y-125042197D01*
X126671395Y-125229469D01*
X126931737Y-125368625D01*
X127214224Y-125454316D01*
X127508000Y-125483251D01*
X127801777Y-125454316D01*
X128084264Y-125368625D01*
X128344606Y-125229469D01*
X128572797Y-125042197D01*
X128760069Y-124814006D01*
X128778000Y-124780459D01*
X128795931Y-124814006D01*
X128983203Y-125042197D01*
X129211395Y-125229469D01*
X129471737Y-125368625D01*
X129754224Y-125454316D01*
X130048000Y-125483251D01*
X130341777Y-125454316D01*
X130624264Y-125368625D01*
X130884606Y-125229469D01*
X131112797Y-125042197D01*
X131300069Y-124814006D01*
X131318000Y-124780459D01*
X131335931Y-124814006D01*
X131523203Y-125042197D01*
X131751395Y-125229469D01*
X132011737Y-125368625D01*
X132294224Y-125454316D01*
X132588000Y-125483251D01*
X132881777Y-125454316D01*
X133164264Y-125368625D01*
X133424606Y-125229469D01*
X133652797Y-125042197D01*
X133840069Y-124814006D01*
X133858000Y-124780459D01*
X133875931Y-124814006D01*
X134063203Y-125042197D01*
X134291395Y-125229469D01*
X134551737Y-125368625D01*
X134834224Y-125454316D01*
X135128000Y-125483251D01*
X135421777Y-125454316D01*
X135704264Y-125368625D01*
X135964606Y-125229469D01*
X136192797Y-125042197D01*
X136380069Y-124814006D01*
X136398000Y-124780459D01*
X136415931Y-124814006D01*
X136603203Y-125042197D01*
X136831395Y-125229469D01*
X137091737Y-125368625D01*
X137374224Y-125454316D01*
X137668000Y-125483251D01*
X137961777Y-125454316D01*
X138244264Y-125368625D01*
X138504606Y-125229469D01*
X138732797Y-125042197D01*
X138920069Y-124814006D01*
X138941424Y-124774053D01*
X139089514Y-124976729D01*
X139305965Y-125175733D01*
X139557081Y-125328686D01*
X139833211Y-125429709D01*
X139848974Y-125432358D01*
X140081000Y-125311217D01*
X140081000Y-123952000D01*
X140335000Y-123952000D01*
X140335000Y-125311217D01*
X140567026Y-125432358D01*
X140582789Y-125429709D01*
X140858919Y-125328686D01*
X141110035Y-125175733D01*
X141326486Y-124976729D01*
X141478000Y-124769367D01*
X141629514Y-124976729D01*
X141845965Y-125175733D01*
X142097081Y-125328686D01*
X142373211Y-125429709D01*
X142388974Y-125432358D01*
X142621000Y-125311217D01*
X142621000Y-123952000D01*
X140335000Y-123952000D01*
X140081000Y-123952000D01*
X140061000Y-123952000D01*
X140061000Y-123698000D01*
X140081000Y-123698000D01*
X140081000Y-122338783D01*
X140335000Y-122338783D01*
X140335000Y-123698000D01*
X142621000Y-123698000D01*
X142621000Y-122338783D01*
X142875000Y-122338783D01*
X142875000Y-123698000D01*
X142895000Y-123698000D01*
X142895000Y-123952000D01*
X142875000Y-123952000D01*
X142875000Y-125311217D01*
X143107026Y-125432358D01*
X143122789Y-125429709D01*
X143398919Y-125328686D01*
X143650035Y-125175733D01*
X143866486Y-124976729D01*
X144014576Y-124774053D01*
X144035931Y-124814006D01*
X144223203Y-125042197D01*
X144451395Y-125229469D01*
X144711737Y-125368625D01*
X144994224Y-125454316D01*
X145288000Y-125483251D01*
X145581777Y-125454316D01*
X145864264Y-125368625D01*
X146124606Y-125229469D01*
X146352797Y-125042197D01*
X146540069Y-124814006D01*
X146679225Y-124553663D01*
X146764916Y-124271176D01*
X146786600Y-124051018D01*
X146786600Y-123598982D01*
X148869400Y-123598982D01*
X148869400Y-124051019D01*
X148891084Y-124271177D01*
X148976775Y-124553664D01*
X149115931Y-124814006D01*
X149303203Y-125042197D01*
X149531395Y-125229469D01*
X149791737Y-125368625D01*
X150074224Y-125454316D01*
X150368000Y-125483251D01*
X150661777Y-125454316D01*
X150944264Y-125368625D01*
X151204606Y-125229469D01*
X151432797Y-125042197D01*
X151620069Y-124814006D01*
X151638000Y-124780459D01*
X151655931Y-124814006D01*
X151843203Y-125042197D01*
X152071395Y-125229469D01*
X152331737Y-125368625D01*
X152614224Y-125454316D01*
X152908000Y-125483251D01*
X153201777Y-125454316D01*
X153484264Y-125368625D01*
X153744606Y-125229469D01*
X153972797Y-125042197D01*
X154160069Y-124814006D01*
X154178000Y-124780459D01*
X154195931Y-124814006D01*
X154383203Y-125042197D01*
X154611395Y-125229469D01*
X154871737Y-125368625D01*
X155154224Y-125454316D01*
X155448000Y-125483251D01*
X155741777Y-125454316D01*
X156024264Y-125368625D01*
X156284606Y-125229469D01*
X156512797Y-125042197D01*
X156700069Y-124814006D01*
X156718000Y-124780459D01*
X156735931Y-124814006D01*
X156923203Y-125042197D01*
X157151395Y-125229469D01*
X157411737Y-125368625D01*
X157694224Y-125454316D01*
X157988000Y-125483251D01*
X158281777Y-125454316D01*
X158564264Y-125368625D01*
X158824606Y-125229469D01*
X159052797Y-125042197D01*
X159240069Y-124814006D01*
X159258000Y-124780459D01*
X159275931Y-124814006D01*
X159463203Y-125042197D01*
X159691395Y-125229469D01*
X159951737Y-125368625D01*
X160234224Y-125454316D01*
X160528000Y-125483251D01*
X160821777Y-125454316D01*
X161104264Y-125368625D01*
X161364606Y-125229469D01*
X161592797Y-125042197D01*
X161780069Y-124814006D01*
X161798000Y-124780459D01*
X161815931Y-124814006D01*
X162003203Y-125042197D01*
X162231395Y-125229469D01*
X162491737Y-125368625D01*
X162774224Y-125454316D01*
X163068000Y-125483251D01*
X163361777Y-125454316D01*
X163644264Y-125368625D01*
X163904606Y-125229469D01*
X164132797Y-125042197D01*
X164320069Y-124814006D01*
X164459225Y-124553663D01*
X164544916Y-124271176D01*
X164566600Y-124051018D01*
X164566600Y-123598981D01*
X164544916Y-123378823D01*
X164459225Y-123096336D01*
X164320069Y-122835994D01*
X164132797Y-122607803D01*
X163904605Y-122420531D01*
X163644263Y-122281375D01*
X163361776Y-122195684D01*
X163068000Y-122166749D01*
X162774223Y-122195684D01*
X162491736Y-122281375D01*
X162231394Y-122420531D01*
X162003203Y-122607803D01*
X161815931Y-122835995D01*
X161798000Y-122869541D01*
X161780069Y-122835994D01*
X161592797Y-122607803D01*
X161364605Y-122420531D01*
X161104263Y-122281375D01*
X160821776Y-122195684D01*
X160528000Y-122166749D01*
X160234223Y-122195684D01*
X159951736Y-122281375D01*
X159691394Y-122420531D01*
X159463203Y-122607803D01*
X159275931Y-122835995D01*
X159258000Y-122869541D01*
X159240069Y-122835994D01*
X159052797Y-122607803D01*
X158824605Y-122420531D01*
X158564263Y-122281375D01*
X158281776Y-122195684D01*
X157988000Y-122166749D01*
X157694223Y-122195684D01*
X157411736Y-122281375D01*
X157151394Y-122420531D01*
X156923203Y-122607803D01*
X156735931Y-122835995D01*
X156718000Y-122869541D01*
X156700069Y-122835994D01*
X156512797Y-122607803D01*
X156284605Y-122420531D01*
X156024263Y-122281375D01*
X155741776Y-122195684D01*
X155448000Y-122166749D01*
X155154223Y-122195684D01*
X154871736Y-122281375D01*
X154611394Y-122420531D01*
X154383203Y-122607803D01*
X154195931Y-122835995D01*
X154178000Y-122869541D01*
X154160069Y-122835994D01*
X153972797Y-122607803D01*
X153744605Y-122420531D01*
X153484263Y-122281375D01*
X153201776Y-122195684D01*
X152908000Y-122166749D01*
X152614223Y-122195684D01*
X152331736Y-122281375D01*
X152071394Y-122420531D01*
X151843203Y-122607803D01*
X151655931Y-122835995D01*
X151638000Y-122869541D01*
X151620069Y-122835994D01*
X151432797Y-122607803D01*
X151204605Y-122420531D01*
X150944263Y-122281375D01*
X150661776Y-122195684D01*
X150368000Y-122166749D01*
X150074223Y-122195684D01*
X149791736Y-122281375D01*
X149531394Y-122420531D01*
X149303203Y-122607803D01*
X149115931Y-122835995D01*
X148976775Y-123096337D01*
X148891084Y-123378824D01*
X148869400Y-123598982D01*
X146786600Y-123598982D01*
X146786600Y-123598981D01*
X146764916Y-123378823D01*
X146679225Y-123096336D01*
X146540069Y-122835994D01*
X146352797Y-122607803D01*
X146124605Y-122420531D01*
X145864263Y-122281375D01*
X145581776Y-122195684D01*
X145288000Y-122166749D01*
X144994223Y-122195684D01*
X144711736Y-122281375D01*
X144451394Y-122420531D01*
X144223203Y-122607803D01*
X144035931Y-122835995D01*
X144014576Y-122875947D01*
X143866486Y-122673271D01*
X143650035Y-122474267D01*
X143398919Y-122321314D01*
X143122789Y-122220291D01*
X143107026Y-122217642D01*
X142875000Y-122338783D01*
X142621000Y-122338783D01*
X142388974Y-122217642D01*
X142373211Y-122220291D01*
X142097081Y-122321314D01*
X141845965Y-122474267D01*
X141629514Y-122673271D01*
X141478000Y-122880633D01*
X141326486Y-122673271D01*
X141110035Y-122474267D01*
X140858919Y-122321314D01*
X140582789Y-122220291D01*
X140567026Y-122217642D01*
X140335000Y-122338783D01*
X140081000Y-122338783D01*
X139848974Y-122217642D01*
X139833211Y-122220291D01*
X139557081Y-122321314D01*
X139305965Y-122474267D01*
X139089514Y-122673271D01*
X138941424Y-122875947D01*
X138920069Y-122835994D01*
X138732797Y-122607803D01*
X138504605Y-122420531D01*
X138244263Y-122281375D01*
X137961776Y-122195684D01*
X137668000Y-122166749D01*
X137374223Y-122195684D01*
X137091736Y-122281375D01*
X136831394Y-122420531D01*
X136603203Y-122607803D01*
X136415931Y-122835995D01*
X136398000Y-122869541D01*
X136380069Y-122835994D01*
X136192797Y-122607803D01*
X135964605Y-122420531D01*
X135704263Y-122281375D01*
X135421776Y-122195684D01*
X135128000Y-122166749D01*
X134834223Y-122195684D01*
X134551736Y-122281375D01*
X134291394Y-122420531D01*
X134063203Y-122607803D01*
X133875931Y-122835995D01*
X133858000Y-122869541D01*
X133840069Y-122835994D01*
X133652797Y-122607803D01*
X133424605Y-122420531D01*
X133164263Y-122281375D01*
X132881776Y-122195684D01*
X132588000Y-122166749D01*
X132294223Y-122195684D01*
X132011736Y-122281375D01*
X131751394Y-122420531D01*
X131523203Y-122607803D01*
X131335931Y-122835995D01*
X131318000Y-122869541D01*
X131300069Y-122835994D01*
X131112797Y-122607803D01*
X130884605Y-122420531D01*
X130624263Y-122281375D01*
X130341776Y-122195684D01*
X130048000Y-122166749D01*
X129754223Y-122195684D01*
X129471736Y-122281375D01*
X129211394Y-122420531D01*
X128983203Y-122607803D01*
X128795931Y-122835995D01*
X128778000Y-122869541D01*
X128760069Y-122835994D01*
X128572797Y-122607803D01*
X128344605Y-122420531D01*
X128084263Y-122281375D01*
X127801776Y-122195684D01*
X127508000Y-122166749D01*
X127214223Y-122195684D01*
X126931736Y-122281375D01*
X126671394Y-122420531D01*
X126443203Y-122607803D01*
X126255931Y-122835995D01*
X126116775Y-123096337D01*
X126031084Y-123378824D01*
X126009400Y-123598982D01*
X116205000Y-123598982D01*
X116205000Y-123562323D01*
X116102508Y-123047065D01*
X115901464Y-122561702D01*
X115609594Y-122124887D01*
X115238113Y-121753406D01*
X114801298Y-121461536D01*
X114315935Y-121260492D01*
X113800677Y-121158000D01*
X113275323Y-121158000D01*
X112760065Y-121260492D01*
X112274702Y-121461536D01*
X111837887Y-121753406D01*
X111708000Y-121883293D01*
X111708000Y-80645000D01*
X125398960Y-80645000D01*
X125403000Y-80686018D01*
X125403001Y-103396052D01*
X125398960Y-103437081D01*
X125415082Y-103600769D01*
X125462828Y-103758167D01*
X125540364Y-103903226D01*
X125563907Y-103931913D01*
X125644710Y-104030372D01*
X125676574Y-104056522D01*
X128226478Y-106606427D01*
X128252628Y-106638291D01*
X128379773Y-106742636D01*
X128524832Y-106820172D01*
X128682230Y-106867918D01*
X128804900Y-106880000D01*
X128804910Y-106880000D01*
X128820993Y-106881584D01*
X128894525Y-106991632D01*
X129101368Y-107198475D01*
X129275760Y-107315000D01*
X129101368Y-107431525D01*
X128894525Y-107638368D01*
X128732010Y-107881589D01*
X128620068Y-108151842D01*
X128563000Y-108438740D01*
X128563000Y-108731260D01*
X128620068Y-109018158D01*
X128732010Y-109288411D01*
X128894525Y-109531632D01*
X129101368Y-109738475D01*
X129344589Y-109900990D01*
X129614842Y-110012932D01*
X129901740Y-110070000D01*
X130194260Y-110070000D01*
X130325940Y-110043807D01*
X131968559Y-111686427D01*
X131994709Y-111718291D01*
X132121854Y-111822636D01*
X132266913Y-111900172D01*
X132424311Y-111947918D01*
X132546981Y-111960000D01*
X132546991Y-111960000D01*
X132587999Y-111964039D01*
X132629007Y-111960000D01*
X145660487Y-111960000D01*
X145701505Y-111964040D01*
X145742523Y-111960000D01*
X145742524Y-111960000D01*
X145865194Y-111947918D01*
X146022592Y-111900172D01*
X146167651Y-111822636D01*
X146294796Y-111718291D01*
X146320951Y-111686421D01*
X147246428Y-110760945D01*
X147278291Y-110734796D01*
X147382636Y-110607651D01*
X147460172Y-110462592D01*
X147507918Y-110305194D01*
X147520000Y-110182524D01*
X147520000Y-110182523D01*
X147524040Y-110141505D01*
X147520000Y-110100487D01*
X147520000Y-108442414D01*
X147584068Y-108287739D01*
X147611466Y-108150000D01*
X151215982Y-108150000D01*
X151257000Y-108154040D01*
X151298018Y-108150000D01*
X151298019Y-108150000D01*
X151420689Y-108137918D01*
X151578087Y-108090172D01*
X151723146Y-108012636D01*
X151850291Y-107908291D01*
X151876446Y-107876421D01*
X154719434Y-105033435D01*
X154751292Y-105007290D01*
X154855637Y-104880145D01*
X154860928Y-104870247D01*
X154940883Y-104908371D01*
X155224411Y-104980339D01*
X155516531Y-104995611D01*
X155806019Y-104953599D01*
X156081747Y-104855919D01*
X156219157Y-104782472D01*
X156296792Y-104533397D01*
X155448000Y-103684605D01*
X155433858Y-103698748D01*
X155254253Y-103519143D01*
X155268395Y-103505000D01*
X155627605Y-103505000D01*
X156476397Y-104353792D01*
X156725472Y-104276157D01*
X156851371Y-104012117D01*
X156923339Y-103728589D01*
X156938611Y-103436469D01*
X156896599Y-103146981D01*
X156798919Y-102871253D01*
X156725472Y-102733843D01*
X156476397Y-102656208D01*
X155627605Y-103505000D01*
X155268395Y-103505000D01*
X155254253Y-103490858D01*
X155433858Y-103311253D01*
X155448000Y-103325395D01*
X156296792Y-102476603D01*
X156221271Y-102234311D01*
X156394632Y-102118475D01*
X156601475Y-101911632D01*
X156675006Y-101801585D01*
X156691099Y-101800000D01*
X156691100Y-101800000D01*
X156813770Y-101787918D01*
X156971168Y-101740172D01*
X157116227Y-101662636D01*
X157243372Y-101558291D01*
X157269527Y-101526421D01*
X158549426Y-100246523D01*
X158581291Y-100220372D01*
X158685636Y-100093227D01*
X158763172Y-99948168D01*
X158810918Y-99790770D01*
X158815821Y-99740990D01*
X158827040Y-99627082D01*
X158823000Y-99586063D01*
X158823000Y-95926007D01*
X158827039Y-95884999D01*
X158823000Y-95843991D01*
X158823000Y-95843981D01*
X158810918Y-95721311D01*
X158763172Y-95563913D01*
X158685636Y-95418854D01*
X158581291Y-95291709D01*
X158549428Y-95265560D01*
X156067446Y-92783579D01*
X156041291Y-92751709D01*
X155914146Y-92647364D01*
X155769087Y-92569828D01*
X155611689Y-92522082D01*
X155489019Y-92510000D01*
X155489018Y-92510000D01*
X155448000Y-92505960D01*
X155406982Y-92510000D01*
X149139007Y-92510000D01*
X149097999Y-92505961D01*
X149056991Y-92510000D01*
X149056981Y-92510000D01*
X148934311Y-92522082D01*
X148776913Y-92569828D01*
X148631854Y-92647364D01*
X148504709Y-92751709D01*
X148478559Y-92783573D01*
X146212133Y-95050000D01*
X131779018Y-95050000D01*
X131738000Y-95045960D01*
X131696981Y-95050000D01*
X131574311Y-95062082D01*
X131416913Y-95109828D01*
X131271854Y-95187364D01*
X131144709Y-95291709D01*
X131118563Y-95323568D01*
X130883000Y-95559131D01*
X130883000Y-89442911D01*
X131526000Y-89442911D01*
X131526000Y-89627089D01*
X131561932Y-89807729D01*
X131632414Y-89977889D01*
X131734738Y-90131028D01*
X131864972Y-90261262D01*
X132018111Y-90363586D01*
X132188271Y-90434068D01*
X132368911Y-90470000D01*
X132553089Y-90470000D01*
X132733729Y-90434068D01*
X132903889Y-90363586D01*
X133057028Y-90261262D01*
X133075290Y-90243000D01*
X144860596Y-90243000D01*
X145015271Y-90307068D01*
X145195911Y-90343000D01*
X145380089Y-90343000D01*
X145560729Y-90307068D01*
X145730889Y-90236586D01*
X145884028Y-90134262D01*
X146014262Y-90004028D01*
X146116586Y-89850889D01*
X146187068Y-89680729D01*
X146223000Y-89500089D01*
X146223000Y-89315911D01*
X146187068Y-89135271D01*
X146116586Y-88965111D01*
X146014262Y-88811972D01*
X145884028Y-88681738D01*
X145730889Y-88579414D01*
X145560729Y-88508932D01*
X145380089Y-88473000D01*
X145195911Y-88473000D01*
X145015271Y-88508932D01*
X144860596Y-88573000D01*
X132629018Y-88573000D01*
X132587999Y-88568960D01*
X132546981Y-88573000D01*
X132424311Y-88585082D01*
X132375133Y-88600000D01*
X132368911Y-88600000D01*
X132188271Y-88635932D01*
X132018111Y-88706414D01*
X131864972Y-88808738D01*
X131734738Y-88938972D01*
X131632414Y-89092111D01*
X131561932Y-89262271D01*
X131526000Y-89442911D01*
X130883000Y-89442911D01*
X130883000Y-85378911D01*
X131526000Y-85378911D01*
X131526000Y-85563089D01*
X131561932Y-85743729D01*
X131632414Y-85913889D01*
X131734738Y-86067028D01*
X131864972Y-86197262D01*
X132018111Y-86299586D01*
X132188271Y-86370068D01*
X132368911Y-86406000D01*
X132553089Y-86406000D01*
X132733729Y-86370068D01*
X132888404Y-86306000D01*
X140547982Y-86306000D01*
X140589000Y-86310040D01*
X140630018Y-86306000D01*
X140630019Y-86306000D01*
X140752689Y-86293918D01*
X140910087Y-86246172D01*
X141055146Y-86168636D01*
X141182291Y-86064291D01*
X141208446Y-86032421D01*
X141258212Y-85982655D01*
X141412889Y-85918586D01*
X141566028Y-85816262D01*
X141696262Y-85686028D01*
X141798586Y-85532889D01*
X141869068Y-85362729D01*
X141905000Y-85182089D01*
X141905000Y-84997911D01*
X141880552Y-84875000D01*
X152689928Y-84875000D01*
X152689928Y-86575000D01*
X152702188Y-86699482D01*
X152738498Y-86819180D01*
X152797463Y-86929494D01*
X152876815Y-87026185D01*
X152973506Y-87105537D01*
X153083820Y-87164502D01*
X153203518Y-87200812D01*
X153328000Y-87213072D01*
X155028000Y-87213072D01*
X155152482Y-87200812D01*
X155272180Y-87164502D01*
X155382494Y-87105537D01*
X155479185Y-87026185D01*
X155558537Y-86929494D01*
X155617502Y-86819180D01*
X155653812Y-86699482D01*
X155666072Y-86575000D01*
X155666072Y-84875000D01*
X155653812Y-84750518D01*
X155617502Y-84630820D01*
X155558537Y-84520506D01*
X155479185Y-84423815D01*
X155382494Y-84344463D01*
X155272180Y-84285498D01*
X155191534Y-84261034D01*
X155275588Y-84185269D01*
X155449641Y-83951920D01*
X155574825Y-83689099D01*
X155619476Y-83541890D01*
X155498155Y-83312000D01*
X154305000Y-83312000D01*
X154305000Y-83332000D01*
X154051000Y-83332000D01*
X154051000Y-83312000D01*
X152857845Y-83312000D01*
X152736524Y-83541890D01*
X152781175Y-83689099D01*
X152906359Y-83951920D01*
X153080412Y-84185269D01*
X153164466Y-84261034D01*
X153083820Y-84285498D01*
X152973506Y-84344463D01*
X152876815Y-84423815D01*
X152797463Y-84520506D01*
X152738498Y-84630820D01*
X152702188Y-84750518D01*
X152689928Y-84875000D01*
X141880552Y-84875000D01*
X141869068Y-84817271D01*
X141798586Y-84647111D01*
X141696262Y-84493972D01*
X141566028Y-84363738D01*
X141412889Y-84261414D01*
X141242729Y-84190932D01*
X141062089Y-84155000D01*
X140877911Y-84155000D01*
X140697271Y-84190932D01*
X140527111Y-84261414D01*
X140373972Y-84363738D01*
X140243738Y-84493972D01*
X140148838Y-84636000D01*
X132888404Y-84636000D01*
X132733729Y-84571932D01*
X132553089Y-84536000D01*
X132368911Y-84536000D01*
X132188271Y-84571932D01*
X132018111Y-84642414D01*
X131864972Y-84744738D01*
X131734738Y-84874972D01*
X131632414Y-85028111D01*
X131561932Y-85198271D01*
X131526000Y-85378911D01*
X130883000Y-85378911D01*
X130883000Y-82641867D01*
X131526000Y-81998867D01*
X131526000Y-82134089D01*
X131561932Y-82314729D01*
X131632414Y-82484889D01*
X131734738Y-82638028D01*
X131864972Y-82768262D01*
X132018111Y-82870586D01*
X132188271Y-82941068D01*
X132368911Y-82977000D01*
X132553089Y-82977000D01*
X132733729Y-82941068D01*
X132903889Y-82870586D01*
X132967458Y-82828110D01*
X152736524Y-82828110D01*
X152857845Y-83058000D01*
X154051000Y-83058000D01*
X154051000Y-81864186D01*
X154305000Y-81864186D01*
X154305000Y-83058000D01*
X155498155Y-83058000D01*
X155619476Y-82828110D01*
X155574825Y-82680901D01*
X155449641Y-82418080D01*
X155275588Y-82184731D01*
X155059355Y-81989822D01*
X154809252Y-81840843D01*
X154534891Y-81743519D01*
X154305000Y-81864186D01*
X154051000Y-81864186D01*
X153821109Y-81743519D01*
X153546748Y-81840843D01*
X153296645Y-81989822D01*
X153080412Y-82184731D01*
X152906359Y-82418080D01*
X152781175Y-82680901D01*
X152736524Y-82828110D01*
X132967458Y-82828110D01*
X133057028Y-82768262D01*
X133187262Y-82638028D01*
X133289586Y-82484889D01*
X133337588Y-82369000D01*
X138256596Y-82369000D01*
X138411271Y-82433068D01*
X138591911Y-82469000D01*
X138776089Y-82469000D01*
X138956729Y-82433068D01*
X139126889Y-82362586D01*
X139280028Y-82260262D01*
X139410262Y-82130028D01*
X139512586Y-81976889D01*
X139583068Y-81806729D01*
X139619000Y-81626089D01*
X139619000Y-81441911D01*
X139583068Y-81261271D01*
X139512586Y-81091111D01*
X139410262Y-80937972D01*
X139280028Y-80807738D01*
X139126889Y-80705414D01*
X138956729Y-80634932D01*
X138776089Y-80599000D01*
X138591911Y-80599000D01*
X138411271Y-80634932D01*
X138256596Y-80699000D01*
X133010007Y-80699000D01*
X132968999Y-80694961D01*
X132927991Y-80699000D01*
X132927981Y-80699000D01*
X132814711Y-80710156D01*
X134165427Y-79359441D01*
X134197291Y-79333291D01*
X134301636Y-79206146D01*
X134379172Y-79061087D01*
X134426918Y-78903689D01*
X134439000Y-78781019D01*
X134439000Y-78781009D01*
X134443039Y-78740001D01*
X134439000Y-78698993D01*
X134439000Y-76970327D01*
X134440606Y-76969469D01*
X134668797Y-76782197D01*
X134856069Y-76554006D01*
X134874000Y-76520459D01*
X134891931Y-76554006D01*
X135079203Y-76782197D01*
X135307395Y-76969469D01*
X135567737Y-77108625D01*
X135850224Y-77194316D01*
X136144000Y-77223251D01*
X136437777Y-77194316D01*
X136720264Y-77108625D01*
X136980606Y-76969469D01*
X137208797Y-76782197D01*
X137396069Y-76554006D01*
X137414000Y-76520459D01*
X137431931Y-76554006D01*
X137619203Y-76782197D01*
X137847395Y-76969469D01*
X138107737Y-77108625D01*
X138390224Y-77194316D01*
X138684000Y-77223251D01*
X138977777Y-77194316D01*
X139260264Y-77108625D01*
X139520606Y-76969469D01*
X139748797Y-76782197D01*
X139936069Y-76554006D01*
X139954000Y-76520459D01*
X139971931Y-76554006D01*
X140159203Y-76782197D01*
X140387395Y-76969469D01*
X140647737Y-77108625D01*
X140930224Y-77194316D01*
X141224000Y-77223251D01*
X141517777Y-77194316D01*
X141800264Y-77108625D01*
X142060606Y-76969469D01*
X142288797Y-76782197D01*
X142476069Y-76554006D01*
X142615225Y-76293663D01*
X142700916Y-76011176D01*
X142722600Y-75791018D01*
X142722600Y-75338982D01*
X143789400Y-75338982D01*
X143789400Y-75791019D01*
X143811084Y-76011177D01*
X143896775Y-76293664D01*
X144035931Y-76554006D01*
X144223203Y-76782197D01*
X144451395Y-76969469D01*
X144711737Y-77108625D01*
X144994224Y-77194316D01*
X145288000Y-77223251D01*
X145581777Y-77194316D01*
X145864264Y-77108625D01*
X146124606Y-76969469D01*
X146352797Y-76782197D01*
X146540069Y-76554006D01*
X146558000Y-76520459D01*
X146575931Y-76554006D01*
X146763203Y-76782197D01*
X146991395Y-76969469D01*
X147251737Y-77108625D01*
X147534224Y-77194316D01*
X147828000Y-77223251D01*
X148121777Y-77194316D01*
X148404264Y-77108625D01*
X148664606Y-76969469D01*
X148892797Y-76782197D01*
X149080069Y-76554006D01*
X149098000Y-76520459D01*
X149115931Y-76554006D01*
X149303203Y-76782197D01*
X149531395Y-76969469D01*
X149791737Y-77108625D01*
X150074224Y-77194316D01*
X150368000Y-77223251D01*
X150661777Y-77194316D01*
X150944264Y-77108625D01*
X151204606Y-76969469D01*
X151432797Y-76782197D01*
X151620069Y-76554006D01*
X151638000Y-76520459D01*
X151655931Y-76554006D01*
X151843203Y-76782197D01*
X152071395Y-76969469D01*
X152331737Y-77108625D01*
X152614224Y-77194316D01*
X152908000Y-77223251D01*
X153201777Y-77194316D01*
X153484264Y-77108625D01*
X153744606Y-76969469D01*
X153972797Y-76782197D01*
X154160069Y-76554006D01*
X154178000Y-76520459D01*
X154195931Y-76554006D01*
X154383203Y-76782197D01*
X154611395Y-76969469D01*
X154871737Y-77108625D01*
X155154224Y-77194316D01*
X155448000Y-77223251D01*
X155741777Y-77194316D01*
X156024264Y-77108625D01*
X156284606Y-76969469D01*
X156512797Y-76782197D01*
X156700069Y-76554006D01*
X156718000Y-76520459D01*
X156735931Y-76554006D01*
X156923203Y-76782197D01*
X157151395Y-76969469D01*
X157411737Y-77108625D01*
X157694224Y-77194316D01*
X157988000Y-77223251D01*
X158281777Y-77194316D01*
X158564264Y-77108625D01*
X158824606Y-76969469D01*
X159052797Y-76782197D01*
X159240069Y-76554006D01*
X159258000Y-76520459D01*
X159275931Y-76554006D01*
X159463203Y-76782197D01*
X159691395Y-76969469D01*
X159951737Y-77108625D01*
X160234224Y-77194316D01*
X160528000Y-77223251D01*
X160821777Y-77194316D01*
X161104264Y-77108625D01*
X161364606Y-76969469D01*
X161592797Y-76782197D01*
X161780069Y-76554006D01*
X161798000Y-76520459D01*
X161815931Y-76554006D01*
X162003203Y-76782197D01*
X162231395Y-76969469D01*
X162491737Y-77108625D01*
X162774224Y-77194316D01*
X163068000Y-77223251D01*
X163361777Y-77194316D01*
X163644264Y-77108625D01*
X163904606Y-76969469D01*
X164132797Y-76782197D01*
X164320069Y-76554006D01*
X164459225Y-76293663D01*
X164544916Y-76011176D01*
X164566600Y-75791018D01*
X164566600Y-75338981D01*
X164544916Y-75118823D01*
X164459225Y-74836336D01*
X164320069Y-74575994D01*
X164132797Y-74347803D01*
X163904605Y-74160531D01*
X163644263Y-74021375D01*
X163361776Y-73935684D01*
X163068000Y-73906749D01*
X162774223Y-73935684D01*
X162491736Y-74021375D01*
X162231394Y-74160531D01*
X162003203Y-74347803D01*
X161815931Y-74575995D01*
X161798000Y-74609541D01*
X161780069Y-74575994D01*
X161592797Y-74347803D01*
X161364605Y-74160531D01*
X161104263Y-74021375D01*
X160821776Y-73935684D01*
X160528000Y-73906749D01*
X160234223Y-73935684D01*
X159951736Y-74021375D01*
X159691394Y-74160531D01*
X159463203Y-74347803D01*
X159275931Y-74575995D01*
X159258000Y-74609541D01*
X159240069Y-74575994D01*
X159052797Y-74347803D01*
X158824605Y-74160531D01*
X158564263Y-74021375D01*
X158281776Y-73935684D01*
X157988000Y-73906749D01*
X157694223Y-73935684D01*
X157411736Y-74021375D01*
X157151394Y-74160531D01*
X156923203Y-74347803D01*
X156735931Y-74575995D01*
X156718000Y-74609541D01*
X156700069Y-74575994D01*
X156512797Y-74347803D01*
X156284605Y-74160531D01*
X156024263Y-74021375D01*
X155741776Y-73935684D01*
X155448000Y-73906749D01*
X155154223Y-73935684D01*
X154871736Y-74021375D01*
X154611394Y-74160531D01*
X154383203Y-74347803D01*
X154195931Y-74575995D01*
X154178000Y-74609541D01*
X154160069Y-74575994D01*
X153972797Y-74347803D01*
X153744605Y-74160531D01*
X153484263Y-74021375D01*
X153201776Y-73935684D01*
X152908000Y-73906749D01*
X152614223Y-73935684D01*
X152331736Y-74021375D01*
X152071394Y-74160531D01*
X151843203Y-74347803D01*
X151655931Y-74575995D01*
X151638000Y-74609541D01*
X151620069Y-74575994D01*
X151432797Y-74347803D01*
X151204605Y-74160531D01*
X150944263Y-74021375D01*
X150661776Y-73935684D01*
X150368000Y-73906749D01*
X150074223Y-73935684D01*
X149791736Y-74021375D01*
X149531394Y-74160531D01*
X149303203Y-74347803D01*
X149115931Y-74575995D01*
X149098000Y-74609541D01*
X149080069Y-74575994D01*
X148892797Y-74347803D01*
X148664605Y-74160531D01*
X148404263Y-74021375D01*
X148121776Y-73935684D01*
X147828000Y-73906749D01*
X147534223Y-73935684D01*
X147251736Y-74021375D01*
X146991394Y-74160531D01*
X146763203Y-74347803D01*
X146575931Y-74575995D01*
X146558000Y-74609541D01*
X146540069Y-74575994D01*
X146352797Y-74347803D01*
X146124605Y-74160531D01*
X145864263Y-74021375D01*
X145581776Y-73935684D01*
X145288000Y-73906749D01*
X144994223Y-73935684D01*
X144711736Y-74021375D01*
X144451394Y-74160531D01*
X144223203Y-74347803D01*
X144035931Y-74575995D01*
X143896775Y-74836337D01*
X143811084Y-75118824D01*
X143789400Y-75338982D01*
X142722600Y-75338982D01*
X142722600Y-75338981D01*
X142700916Y-75118823D01*
X142615225Y-74836336D01*
X142476069Y-74575994D01*
X142288797Y-74347803D01*
X142060605Y-74160531D01*
X141800263Y-74021375D01*
X141517776Y-73935684D01*
X141224000Y-73906749D01*
X140930223Y-73935684D01*
X140647736Y-74021375D01*
X140387394Y-74160531D01*
X140159203Y-74347803D01*
X139971931Y-74575995D01*
X139954000Y-74609541D01*
X139936069Y-74575994D01*
X139748797Y-74347803D01*
X139520605Y-74160531D01*
X139260263Y-74021375D01*
X138977776Y-73935684D01*
X138684000Y-73906749D01*
X138390223Y-73935684D01*
X138107736Y-74021375D01*
X137847394Y-74160531D01*
X137619203Y-74347803D01*
X137431931Y-74575995D01*
X137414000Y-74609541D01*
X137396069Y-74575994D01*
X137208797Y-74347803D01*
X136980605Y-74160531D01*
X136720263Y-74021375D01*
X136437776Y-73935684D01*
X136144000Y-73906749D01*
X135850223Y-73935684D01*
X135567736Y-74021375D01*
X135307394Y-74160531D01*
X135079203Y-74347803D01*
X134891931Y-74575995D01*
X134874000Y-74609541D01*
X134856069Y-74575994D01*
X134668797Y-74347803D01*
X134440605Y-74160531D01*
X134180263Y-74021375D01*
X133897776Y-73935684D01*
X133604000Y-73906749D01*
X133310223Y-73935684D01*
X133027736Y-74021375D01*
X132767394Y-74160531D01*
X132539203Y-74347803D01*
X132351931Y-74575995D01*
X132334000Y-74609541D01*
X132316069Y-74575994D01*
X132128797Y-74347803D01*
X131900605Y-74160531D01*
X131640263Y-74021375D01*
X131357776Y-73935684D01*
X131064000Y-73906749D01*
X130770223Y-73935684D01*
X130487736Y-74021375D01*
X130227394Y-74160531D01*
X129999203Y-74347803D01*
X129811931Y-74575995D01*
X129794000Y-74609541D01*
X129776069Y-74575994D01*
X129588797Y-74347803D01*
X129360605Y-74160531D01*
X129100263Y-74021375D01*
X128817776Y-73935684D01*
X128524000Y-73906749D01*
X128230223Y-73935684D01*
X127947736Y-74021375D01*
X127687394Y-74160531D01*
X127459203Y-74347803D01*
X127271931Y-74575995D01*
X127250576Y-74615947D01*
X127102486Y-74413271D01*
X126886035Y-74214267D01*
X126634919Y-74061314D01*
X126358789Y-73960291D01*
X126343026Y-73957642D01*
X126111000Y-74078783D01*
X126111000Y-75438000D01*
X126131000Y-75438000D01*
X126131000Y-75692000D01*
X126111000Y-75692000D01*
X126111000Y-77051217D01*
X126343026Y-77172358D01*
X126358789Y-77169709D01*
X126634919Y-77068686D01*
X126886035Y-76915733D01*
X127102486Y-76716729D01*
X127250576Y-76514053D01*
X127271931Y-76554006D01*
X127459203Y-76782197D01*
X127687395Y-76969469D01*
X127689001Y-76970327D01*
X127689001Y-78013131D01*
X125676579Y-80025554D01*
X125644709Y-80051709D01*
X125540365Y-80178854D01*
X125540364Y-80178855D01*
X125462828Y-80323914D01*
X125415082Y-80481312D01*
X125398960Y-80645000D01*
X111708000Y-80645000D01*
X111708000Y-73735000D01*
X112866293Y-73735000D01*
X112736406Y-73864887D01*
G37*
G04 #@! TD.AperFunction*
D17*
X145785932Y-108287739D02*
X145850001Y-108442416D01*
X145850000Y-109795637D01*
X145355638Y-110290000D01*
X132933868Y-110290000D01*
X132711501Y-110067633D01*
X132946019Y-110033599D01*
X133221747Y-109935919D01*
X133359157Y-109862472D01*
X133436792Y-109613397D01*
X132588000Y-108764605D01*
X132573858Y-108778748D01*
X132394253Y-108599143D01*
X132408395Y-108585000D01*
X132394253Y-108570858D01*
X132573858Y-108391253D01*
X132588000Y-108405395D01*
X132602143Y-108391253D01*
X132781748Y-108570858D01*
X132767605Y-108585000D01*
X133616397Y-109433792D01*
X133865472Y-109356157D01*
X133991371Y-109092117D01*
X134063339Y-108808589D01*
X134078611Y-108516469D01*
X134036599Y-108226981D01*
X134009328Y-108150000D01*
X145758534Y-108150000D01*
X145785932Y-108287739D01*
G04 #@! TA.AperFunction,Conductor*
D18*
G36*
X145785932Y-108287739D02*
G01*
X145850001Y-108442416D01*
X145850000Y-109795637D01*
X145355638Y-110290000D01*
X132933868Y-110290000D01*
X132711501Y-110067633D01*
X132946019Y-110033599D01*
X133221747Y-109935919D01*
X133359157Y-109862472D01*
X133436792Y-109613397D01*
X132588000Y-108764605D01*
X132573858Y-108778748D01*
X132394253Y-108599143D01*
X132408395Y-108585000D01*
X132394253Y-108570858D01*
X132573858Y-108391253D01*
X132588000Y-108405395D01*
X132602143Y-108391253D01*
X132781748Y-108570858D01*
X132767605Y-108585000D01*
X133616397Y-109433792D01*
X133865472Y-109356157D01*
X133991371Y-109092117D01*
X134063339Y-108808589D01*
X134078611Y-108516469D01*
X134036599Y-108226981D01*
X134009328Y-108150000D01*
X145758534Y-108150000D01*
X145785932Y-108287739D01*
G37*
G04 #@! TD.AperFunction*
D17*
X151449193Y-103227060D02*
X151423000Y-103358740D01*
X151423000Y-103651260D01*
X151480068Y-103938158D01*
X151592010Y-104208411D01*
X151754525Y-104451632D01*
X151961368Y-104658475D01*
X152204589Y-104820990D01*
X152463074Y-104928058D01*
X150911133Y-106480000D01*
X134009676Y-106480000D01*
X134063339Y-106268589D01*
X134078611Y-105976469D01*
X134036599Y-105686981D01*
X133938919Y-105411253D01*
X133865472Y-105273843D01*
X133616397Y-105196208D01*
X132767605Y-106045000D01*
X132781748Y-106059143D01*
X132602143Y-106238748D01*
X132588000Y-106224605D01*
X132573858Y-106238748D01*
X132394253Y-106059143D01*
X132408395Y-106045000D01*
X131559603Y-105196208D01*
X131317311Y-105271729D01*
X131201475Y-105098368D01*
X130994632Y-104891525D01*
X130820240Y-104775000D01*
X130994632Y-104658475D01*
X131119710Y-104533397D01*
X131739208Y-104533397D01*
X131814514Y-104775000D01*
X131739208Y-105016603D01*
X132588000Y-105865395D01*
X133436792Y-105016603D01*
X133361486Y-104775000D01*
X133436792Y-104533397D01*
X132588000Y-103684605D01*
X131739208Y-104533397D01*
X131119710Y-104533397D01*
X131201475Y-104451632D01*
X131317311Y-104278271D01*
X131559603Y-104353792D01*
X132408395Y-103505000D01*
X132394253Y-103490858D01*
X132573858Y-103311253D01*
X132588000Y-103325395D01*
X132602143Y-103311253D01*
X132781748Y-103490858D01*
X132767605Y-103505000D01*
X133616397Y-104353792D01*
X133865472Y-104276157D01*
X133991371Y-104012117D01*
X134063339Y-103728589D01*
X134078611Y-103436469D01*
X134036599Y-103146981D01*
X134016412Y-103089999D01*
X151312132Y-103089999D01*
X151449193Y-103227060D01*
G04 #@! TA.AperFunction,Conductor*
D18*
G36*
X151449193Y-103227060D02*
G01*
X151423000Y-103358740D01*
X151423000Y-103651260D01*
X151480068Y-103938158D01*
X151592010Y-104208411D01*
X151754525Y-104451632D01*
X151961368Y-104658475D01*
X152204589Y-104820990D01*
X152463074Y-104928058D01*
X150911133Y-106480000D01*
X134009676Y-106480000D01*
X134063339Y-106268589D01*
X134078611Y-105976469D01*
X134036599Y-105686981D01*
X133938919Y-105411253D01*
X133865472Y-105273843D01*
X133616397Y-105196208D01*
X132767605Y-106045000D01*
X132781748Y-106059143D01*
X132602143Y-106238748D01*
X132588000Y-106224605D01*
X132573858Y-106238748D01*
X132394253Y-106059143D01*
X132408395Y-106045000D01*
X131559603Y-105196208D01*
X131317311Y-105271729D01*
X131201475Y-105098368D01*
X130994632Y-104891525D01*
X130820240Y-104775000D01*
X130994632Y-104658475D01*
X131119710Y-104533397D01*
X131739208Y-104533397D01*
X131814514Y-104775000D01*
X131739208Y-105016603D01*
X132588000Y-105865395D01*
X133436792Y-105016603D01*
X133361486Y-104775000D01*
X133436792Y-104533397D01*
X132588000Y-103684605D01*
X131739208Y-104533397D01*
X131119710Y-104533397D01*
X131201475Y-104451632D01*
X131317311Y-104278271D01*
X131559603Y-104353792D01*
X132408395Y-103505000D01*
X132394253Y-103490858D01*
X132573858Y-103311253D01*
X132588000Y-103325395D01*
X132602143Y-103311253D01*
X132781748Y-103490858D01*
X132767605Y-103505000D01*
X133616397Y-104353792D01*
X133865472Y-104276157D01*
X133991371Y-104012117D01*
X134063339Y-103728589D01*
X134078611Y-103436469D01*
X134036599Y-103146981D01*
X134016412Y-103089999D01*
X151312132Y-103089999D01*
X151449193Y-103227060D01*
G37*
G04 #@! TD.AperFunction*
D17*
X152779061Y-96936928D02*
X152308000Y-96936928D01*
X152134746Y-96953992D01*
X151968150Y-97004528D01*
X151814614Y-97086595D01*
X151680038Y-97197038D01*
X151569595Y-97331614D01*
X151487528Y-97485150D01*
X151436992Y-97651746D01*
X151419928Y-97825000D01*
X151419928Y-99025000D01*
X151436992Y-99198254D01*
X151487528Y-99364850D01*
X151569595Y-99518386D01*
X151680038Y-99652962D01*
X151814614Y-99763405D01*
X151941608Y-99831285D01*
X151754525Y-100018368D01*
X151592010Y-100261589D01*
X151480068Y-100531842D01*
X151423000Y-100818740D01*
X151423000Y-101111260D01*
X151480068Y-101398158D01*
X151489115Y-101419999D01*
X134004600Y-101419999D01*
X134063339Y-101188589D01*
X134078611Y-100896469D01*
X134036599Y-100606981D01*
X133938919Y-100331253D01*
X133865472Y-100193843D01*
X133616397Y-100116208D01*
X132767605Y-100965000D01*
X132781748Y-100979143D01*
X132602143Y-101158748D01*
X132588000Y-101144605D01*
X132573858Y-101158748D01*
X132394253Y-100979143D01*
X132408395Y-100965000D01*
X131559603Y-100116208D01*
X131317311Y-100191729D01*
X131201475Y-100018368D01*
X131014392Y-99831285D01*
X131141386Y-99763405D01*
X131275962Y-99652962D01*
X131386405Y-99518386D01*
X131454285Y-99391392D01*
X131641368Y-99578475D01*
X131814729Y-99694311D01*
X131739208Y-99936603D01*
X132588000Y-100785395D01*
X133436792Y-99936603D01*
X133361271Y-99694311D01*
X133534632Y-99578475D01*
X133741475Y-99371632D01*
X133816065Y-99260000D01*
X146516982Y-99260000D01*
X146558000Y-99264040D01*
X146599018Y-99260000D01*
X146599019Y-99260000D01*
X146721689Y-99247918D01*
X146879087Y-99200172D01*
X147024146Y-99122636D01*
X147151291Y-99018291D01*
X147177446Y-98986421D01*
X149443868Y-96720000D01*
X152562133Y-96720000D01*
X152779061Y-96936928D01*
G04 #@! TA.AperFunction,Conductor*
D18*
G36*
X152779061Y-96936928D02*
G01*
X152308000Y-96936928D01*
X152134746Y-96953992D01*
X151968150Y-97004528D01*
X151814614Y-97086595D01*
X151680038Y-97197038D01*
X151569595Y-97331614D01*
X151487528Y-97485150D01*
X151436992Y-97651746D01*
X151419928Y-97825000D01*
X151419928Y-99025000D01*
X151436992Y-99198254D01*
X151487528Y-99364850D01*
X151569595Y-99518386D01*
X151680038Y-99652962D01*
X151814614Y-99763405D01*
X151941608Y-99831285D01*
X151754525Y-100018368D01*
X151592010Y-100261589D01*
X151480068Y-100531842D01*
X151423000Y-100818740D01*
X151423000Y-101111260D01*
X151480068Y-101398158D01*
X151489115Y-101419999D01*
X134004600Y-101419999D01*
X134063339Y-101188589D01*
X134078611Y-100896469D01*
X134036599Y-100606981D01*
X133938919Y-100331253D01*
X133865472Y-100193843D01*
X133616397Y-100116208D01*
X132767605Y-100965000D01*
X132781748Y-100979143D01*
X132602143Y-101158748D01*
X132588000Y-101144605D01*
X132573858Y-101158748D01*
X132394253Y-100979143D01*
X132408395Y-100965000D01*
X131559603Y-100116208D01*
X131317311Y-100191729D01*
X131201475Y-100018368D01*
X131014392Y-99831285D01*
X131141386Y-99763405D01*
X131275962Y-99652962D01*
X131386405Y-99518386D01*
X131454285Y-99391392D01*
X131641368Y-99578475D01*
X131814729Y-99694311D01*
X131739208Y-99936603D01*
X132588000Y-100785395D01*
X133436792Y-99936603D01*
X133361271Y-99694311D01*
X133534632Y-99578475D01*
X133741475Y-99371632D01*
X133816065Y-99260000D01*
X146516982Y-99260000D01*
X146558000Y-99264040D01*
X146599018Y-99260000D01*
X146599019Y-99260000D01*
X146721689Y-99247918D01*
X146879087Y-99200172D01*
X147024146Y-99122636D01*
X147151291Y-99018291D01*
X147177446Y-98986421D01*
X149443868Y-96720000D01*
X152562133Y-96720000D01*
X152779061Y-96936928D01*
G37*
G04 #@! TD.AperFunction*
M02*
