G04 #@! TF.GenerationSoftware,KiCad,Pcbnew,(5.1.9)-1*
G04 #@! TF.CreationDate,2021-02-28T19:29:53+01:00*
G04 #@! TF.ProjectId,arduino as isp shield,61726475-696e-46f2-9061-732069737020,rev?*
G04 #@! TF.SameCoordinates,Original*
G04 #@! TF.FileFunction,Soldermask,Top*
G04 #@! TF.FilePolarity,Negative*
%FSLAX46Y46*%
G04 Gerber Fmt 4.6, Leading zero omitted, Abs format (unit mm)*
G04 Created by KiCad (PCBNEW (5.1.9)-1) date 2021-02-28 19:29:53*
%MOMM*%
%LPD*%
G01*
G04 APERTURE LIST*
%ADD10O,1.700000X1.700000*%
%ADD11R,1.700000X1.700000*%
%ADD12C,1.700000*%
%ADD13O,1.727200X2.032000*%
%ADD14C,4.064000*%
G04 APERTURE END LIST*
D10*
X154178000Y-83185000D03*
D11*
X154178000Y-85725000D03*
G36*
G01*
X129648000Y-89084999D02*
X129648000Y-89985001D01*
G75*
G02*
X129398001Y-90235000I-249999J0D01*
G01*
X128697999Y-90235000D01*
G75*
G02*
X128448000Y-89985001I0J249999D01*
G01*
X128448000Y-89084999D01*
G75*
G02*
X128697999Y-88835000I249999J0D01*
G01*
X129398001Y-88835000D01*
G75*
G02*
X129648000Y-89084999I0J-249999D01*
G01*
G37*
G36*
G01*
X131648000Y-89084999D02*
X131648000Y-89985001D01*
G75*
G02*
X131398001Y-90235000I-249999J0D01*
G01*
X130697999Y-90235000D01*
G75*
G02*
X130448000Y-89985001I0J249999D01*
G01*
X130448000Y-89084999D01*
G75*
G02*
X130697999Y-88835000I249999J0D01*
G01*
X131398001Y-88835000D01*
G75*
G02*
X131648000Y-89084999I0J-249999D01*
G01*
G37*
G36*
G01*
X129648000Y-85274999D02*
X129648000Y-86175001D01*
G75*
G02*
X129398001Y-86425000I-249999J0D01*
G01*
X128697999Y-86425000D01*
G75*
G02*
X128448000Y-86175001I0J249999D01*
G01*
X128448000Y-85274999D01*
G75*
G02*
X128697999Y-85025000I249999J0D01*
G01*
X129398001Y-85025000D01*
G75*
G02*
X129648000Y-85274999I0J-249999D01*
G01*
G37*
G36*
G01*
X131648000Y-85274999D02*
X131648000Y-86175001D01*
G75*
G02*
X131398001Y-86425000I-249999J0D01*
G01*
X130697999Y-86425000D01*
G75*
G02*
X130448000Y-86175001I0J249999D01*
G01*
X130448000Y-85274999D01*
G75*
G02*
X130697999Y-85025000I249999J0D01*
G01*
X131398001Y-85025000D01*
G75*
G02*
X131648000Y-85274999I0J-249999D01*
G01*
G37*
G36*
G01*
X129648000Y-81464999D02*
X129648000Y-82365001D01*
G75*
G02*
X129398001Y-82615000I-249999J0D01*
G01*
X128697999Y-82615000D01*
G75*
G02*
X128448000Y-82365001I0J249999D01*
G01*
X128448000Y-81464999D01*
G75*
G02*
X128697999Y-81215000I249999J0D01*
G01*
X129398001Y-81215000D01*
G75*
G02*
X129648000Y-81464999I0J-249999D01*
G01*
G37*
G36*
G01*
X131648000Y-81464999D02*
X131648000Y-82365001D01*
G75*
G02*
X131398001Y-82615000I-249999J0D01*
G01*
X130697999Y-82615000D01*
G75*
G02*
X130448000Y-82365001I0J249999D01*
G01*
X130448000Y-81464999D01*
G75*
G02*
X130697999Y-81215000I249999J0D01*
G01*
X131398001Y-81215000D01*
G75*
G02*
X131648000Y-81464999I0J-249999D01*
G01*
G37*
G36*
G01*
X125418000Y-89985001D02*
X125418000Y-89084999D01*
G75*
G02*
X125667999Y-88835000I249999J0D01*
G01*
X126318001Y-88835000D01*
G75*
G02*
X126568000Y-89084999I0J-249999D01*
G01*
X126568000Y-89985001D01*
G75*
G02*
X126318001Y-90235000I-249999J0D01*
G01*
X125667999Y-90235000D01*
G75*
G02*
X125418000Y-89985001I0J249999D01*
G01*
G37*
G36*
G01*
X123368000Y-89985001D02*
X123368000Y-89084999D01*
G75*
G02*
X123617999Y-88835000I249999J0D01*
G01*
X124268001Y-88835000D01*
G75*
G02*
X124518000Y-89084999I0J-249999D01*
G01*
X124518000Y-89985001D01*
G75*
G02*
X124268001Y-90235000I-249999J0D01*
G01*
X123617999Y-90235000D01*
G75*
G02*
X123368000Y-89985001I0J249999D01*
G01*
G37*
G36*
G01*
X125418000Y-86175001D02*
X125418000Y-85274999D01*
G75*
G02*
X125667999Y-85025000I249999J0D01*
G01*
X126318001Y-85025000D01*
G75*
G02*
X126568000Y-85274999I0J-249999D01*
G01*
X126568000Y-86175001D01*
G75*
G02*
X126318001Y-86425000I-249999J0D01*
G01*
X125667999Y-86425000D01*
G75*
G02*
X125418000Y-86175001I0J249999D01*
G01*
G37*
G36*
G01*
X123368000Y-86175001D02*
X123368000Y-85274999D01*
G75*
G02*
X123617999Y-85025000I249999J0D01*
G01*
X124268001Y-85025000D01*
G75*
G02*
X124518000Y-85274999I0J-249999D01*
G01*
X124518000Y-86175001D01*
G75*
G02*
X124268001Y-86425000I-249999J0D01*
G01*
X123617999Y-86425000D01*
G75*
G02*
X123368000Y-86175001I0J249999D01*
G01*
G37*
G36*
G01*
X125418000Y-82365001D02*
X125418000Y-81464999D01*
G75*
G02*
X125667999Y-81215000I249999J0D01*
G01*
X126318001Y-81215000D01*
G75*
G02*
X126568000Y-81464999I0J-249999D01*
G01*
X126568000Y-82365001D01*
G75*
G02*
X126318001Y-82615000I-249999J0D01*
G01*
X125667999Y-82615000D01*
G75*
G02*
X125418000Y-82365001I0J249999D01*
G01*
G37*
G36*
G01*
X123368000Y-82365001D02*
X123368000Y-81464999D01*
G75*
G02*
X123617999Y-81215000I249999J0D01*
G01*
X124268001Y-81215000D01*
G75*
G02*
X124518000Y-81464999I0J-249999D01*
G01*
X124518000Y-82365001D01*
G75*
G02*
X124268001Y-82615000I-249999J0D01*
G01*
X123617999Y-82615000D01*
G75*
G02*
X123368000Y-82365001I0J249999D01*
G01*
G37*
D12*
X155448000Y-103505000D03*
X155448000Y-100965000D03*
X155448000Y-98425000D03*
X152908000Y-103505000D03*
X152908000Y-100965000D03*
G36*
G01*
X152058000Y-99025000D02*
X152058000Y-97825000D01*
G75*
G02*
X152308000Y-97575000I250000J0D01*
G01*
X153508000Y-97575000D01*
G75*
G02*
X153758000Y-97825000I0J-250000D01*
G01*
X153758000Y-99025000D01*
G75*
G02*
X153508000Y-99275000I-250000J0D01*
G01*
X152308000Y-99275000D01*
G75*
G02*
X152058000Y-99025000I0J250000D01*
G01*
G37*
X132588000Y-108585000D03*
X132588000Y-106045000D03*
X132588000Y-103505000D03*
X132588000Y-100965000D03*
X132588000Y-98425000D03*
X130048000Y-108585000D03*
X130048000Y-106045000D03*
X130048000Y-103505000D03*
X130048000Y-100965000D03*
G36*
G01*
X129198000Y-99025000D02*
X129198000Y-97825000D01*
G75*
G02*
X129448000Y-97575000I250000J0D01*
G01*
X130648000Y-97575000D01*
G75*
G02*
X130898000Y-97825000I0J-250000D01*
G01*
X130898000Y-99025000D01*
G75*
G02*
X130648000Y-99275000I-250000J0D01*
G01*
X129448000Y-99275000D01*
G75*
G02*
X129198000Y-99025000I0J250000D01*
G01*
G37*
D13*
X127508000Y-123825000D03*
X130048000Y-123825000D03*
X132588000Y-123825000D03*
X135128000Y-123825000D03*
X137668000Y-123825000D03*
X140208000Y-123825000D03*
X142748000Y-123825000D03*
X145288000Y-123825000D03*
X150368000Y-123825000D03*
X152908000Y-123825000D03*
X155448000Y-123825000D03*
X157988000Y-123825000D03*
X160528000Y-123825000D03*
X163068000Y-123825000D03*
X118364000Y-75565000D03*
X120904000Y-75565000D03*
X123444000Y-75565000D03*
X125984000Y-75565000D03*
X128524000Y-75565000D03*
X131064000Y-75565000D03*
X133604000Y-75565000D03*
X136144000Y-75565000D03*
X138684000Y-75565000D03*
X141224000Y-75565000D03*
X145288000Y-75565000D03*
X147828000Y-75565000D03*
X150368000Y-75565000D03*
X152908000Y-75565000D03*
X155448000Y-75565000D03*
X157988000Y-75565000D03*
X160528000Y-75565000D03*
X163068000Y-75565000D03*
D14*
X113538000Y-123825000D03*
X165608000Y-118745000D03*
X114808000Y-75565000D03*
X165608000Y-90805000D03*
M02*
