M48
; DRILL file {KiCad (5.1.9)-1} date 02/28/21 19:29:57
; FORMAT={-:-/ absolute / inch / decimal}
; #@! TF.CreationDate,2021-02-28T19:29:57+01:00
; #@! TF.GenerationSoftware,Kicad,Pcbnew,(5.1.9)-1
; #@! TF.FileFunction,Plated,1,2,PTH
FMAT,2
INCH
T1C0.0157
T2C0.0394
T3C0.0400
T4C0.1200
%
G90
G05
T1
X5.06Y-4.08
X5.215Y-3.23
X5.215Y-3.365
X5.215Y-3.525
X5.46Y-3.21
X5.55Y-3.35
X5.72Y-3.52
X5.775Y-4.2526
T2
X5.12Y-3.875
X5.12Y-3.975
X5.12Y-4.075
X5.12Y-4.175
X5.12Y-4.275
X5.22Y-3.875
X5.22Y-3.975
X5.22Y-4.075
X5.22Y-4.175
X5.22Y-4.275
X6.02Y-3.875
X6.02Y-3.975
X6.02Y-4.075
X6.07Y-3.275
X6.07Y-3.375
X6.12Y-3.875
X6.12Y-3.975
X6.12Y-4.075
T3
X4.66Y-2.975
X4.76Y-2.975
X4.86Y-2.975
X4.96Y-2.975
X5.02Y-4.875
X5.06Y-2.975
X5.12Y-4.875
X5.16Y-2.975
X5.22Y-4.875
X5.26Y-2.975
X5.32Y-4.875
X5.36Y-2.975
X5.42Y-4.875
X5.46Y-2.975
X5.52Y-4.875
X5.56Y-2.975
X5.62Y-4.875
X5.72Y-2.975
X5.72Y-4.875
X5.82Y-2.975
X5.92Y-2.975
X5.92Y-4.875
X6.02Y-2.975
X6.02Y-4.875
X6.12Y-2.975
X6.12Y-4.875
X6.22Y-2.975
X6.22Y-4.875
X6.32Y-2.975
X6.32Y-4.875
X6.42Y-2.975
X6.42Y-4.875
T4
X4.47Y-4.875
X4.52Y-2.975
X6.52Y-3.575
X6.52Y-4.675
T0
M30
